<svg xmlns="http://www.w3.org/2000/svg" xmlns:xlink="http://www.w3.org/1999/xlink" width="87" height="87" viewBox="0 0 87 87">
  <defs>
    <linearGradient id="linear-gradient" x1="0.275" y1="0.627" x2="0.949" y2="0.359" gradientUnits="objectBoundingBox">
      <stop offset="0" stop-color="#db630e"/>
      <stop offset="1" stop-color="#ef883c"/>
    </linearGradient>
    <filter id="Ellipse_310" x="0" y="0" width="87" height="87" filterUnits="userSpaceOnUse">
      <feOffset dy="3" input="SourceAlpha"/>
      <feGaussianBlur stdDeviation="3" result="blur"/>
      <feFlood flood-color="#0a0a0a" flood-opacity="0.161"/>
      <feComposite operator="in" in2="blur"/>
      <feComposite in="SourceGraphic"/>
    </filter>
    <radialGradient id="radial-gradient" cx="0.566" cy="0.5" r="0.321" gradientTransform="translate(0.009 -0.136) scale(0.984 1.273)" gradientUnits="objectBoundingBox">
      <stop offset="0" stop-color="#f27922" stop-opacity="0.988"/>
      <stop offset="1" stop-color="#ef883c"/>
    </radialGradient>
    <clipPath id="clip-path">
      <rect id="Rectangle_1533" data-name="Rectangle 1533" width="18.159" height="36.042" fill="#fff" stroke="#707070" stroke-width="1"/>
    </clipPath>
    <clipPath id="clip-path-2">
      <rect id="Rectangle_1534" data-name="Rectangle 1534" width="15.407" height="36.042" transform="translate(0 0)" fill="#fff" stroke="#707070" stroke-width="1"/>
    </clipPath>
  </defs>
  <g id="close" transform="translate(-955 -164)">
    <g transform="matrix(1, 0, 0, 1, 955, 164)" filter="url(#Ellipse_310)">
      <circle id="Ellipse_310-2" data-name="Ellipse 310" cx="34.5" cy="34.5" r="34.5" transform="translate(9 6)" fill="url(#linear-gradient)"/>
    </g>
    <circle id="Ellipse_311" data-name="Ellipse 311" cx="27.5" cy="27.5" r="27.5" transform="translate(971 177)" fill="url(#radial-gradient)"/>
    <g id="Mask_Group_21" data-name="Mask Group 21" transform="matrix(0.719, 0.695, -0.695, 0.719, 1007.664, 186.46)" clip-path="url(#clip-path)">
      <path id="utensils-solid" d="M14.635,1.07a86.069,86.069,0,0,1,1.133,9.067,7.422,7.422,0,0,1-4.85,7.363l.908,16.761a1.694,1.694,0,0,1-1.689,1.781H5.632a1.694,1.694,0,0,1-1.689-1.781L4.85,17.5A7.42,7.42,0,0,1,0,10.137,85.814,85.814,0,0,1,1.133,1.07c.225-1.429,3.189-1.45,3.372.077v9.94c.092.239,1.063.225,1.126,0,.1-1.781.556-9.8.563-9.982.232-1.464,3.147-1.464,3.372,0,.014.19.465,8.2.563,9.982.063.225,1.042.239,1.126,0C11.439-.373,14.41-.359,14.635,1.07Z" transform="translate(0.765 0)" fill="#f3e0e0"/>
    </g>
    <g id="Mask_Group_22" data-name="Mask Group 22" transform="translate(979.16 196.098) rotate(-34)" clip-path="url(#clip-path-2)">
      <path id="utensils-solid-2" data-name="utensils-solid" d="M5,21.182,3.947,34.212a1.689,1.689,0,0,0,1.682,1.83H9.572a1.685,1.685,0,0,0,1.689-1.689V1.689A1.69,1.69,0,0,0,9.572,0C3.764,0-6.014,12.565,5,21.182Z" transform="translate(2.005 0)" fill="#fff"/>
    </g>
  </g>
</svg>
