<svg id="rectangle_blue_4" xmlns="http://www.w3.org/2000/svg" width="100" height="100" viewBox="0 0 100 100">
  <rect id="Rectangle_1" data-name="Rectangle 1" width="100" height="80" rx="10" transform="translate(0 10)" fill="#00bff3"/>
  <g id="Group_1241" data-name="Group 1241" transform="translate(-135 -156)">
    <path id="Rectangle_5" data-name="Rectangle 5" d="M0,0H0A10,10,0,0,1,10,10V20A10,10,0,0,1,0,30H0a0,0,0,0,1,0,0V0A0,0,0,0,1,0,0Z" transform="translate(221 246) rotate(90)" fill="#0c90b4"/>
    <path id="Rectangle_4" data-name="Rectangle 4" d="M10,0h0a0,0,0,0,1,0,0V30a0,0,0,0,1,0,0h0A10,10,0,0,1,0,20V10A10,10,0,0,1,10,0Z" transform="translate(221 156) rotate(90)" fill="#0c90b4"/>
  </g>
  <g id="Group_1242" data-name="Group 1242" transform="translate(-175 -156)">
    <path id="Rectangle_5-2" data-name="Rectangle 5" d="M0,0H0A10,10,0,0,1,10,10V20A10,10,0,0,1,0,30H0a0,0,0,0,1,0,0V0A0,0,0,0,1,0,0Z" transform="translate(221 246) rotate(90)" fill="#0c90b4"/>
    <path id="Rectangle_4-2" data-name="Rectangle 4" d="M10,0h0a0,0,0,0,1,0,0V30a0,0,0,0,1,0,0h0A10,10,0,0,1,0,20V10A10,10,0,0,1,10,0Z" transform="translate(221 156) rotate(90)" fill="#0c90b4"/>
  </g>
  <rect id="Rectangle_1793" data-name="Rectangle 1793" width="20" height="3" rx="1.5" transform="translate(21.5 4.5)" fill="#00bff3"/>
  <rect id="Rectangle_1797" data-name="Rectangle 1797" width="20" height="3" rx="1.5" transform="translate(21.5 92.5)" fill="#00bff3"/>
  <rect id="Rectangle_1795" data-name="Rectangle 1795" width="20" height="3" rx="1.5" transform="translate(61.5 4.5)" fill="#00bff3"/>
  <rect id="Rectangle_1796" data-name="Rectangle 1796" width="20" height="3" rx="1.5" transform="translate(61.5 92.5)" fill="#00bff3"/>
</svg>
