<svg id="rectangle_yellow_18" xmlns="http://www.w3.org/2000/svg" width="302" height="100" viewBox="0 0 302 100">
  <rect id="Rectangle_1" data-name="Rectangle 1" width="282" height="80" rx="10" transform="translate(10 10)" fill="#fcd484"/>
  <path id="Rectangle_5" data-name="Rectangle 5" d="M0,0H0A10,10,0,0,1,10,10V20A10,10,0,0,1,0,30H0a0,0,0,0,1,0,0V0A0,0,0,0,1,0,0Z" transform="translate(82 90) rotate(90)" fill="#dfac48"/>
  <path id="Rectangle_4" data-name="Rectangle 4" d="M10,0h0a0,0,0,0,1,0,0V30a0,0,0,0,1,0,0h0A10,10,0,0,1,0,20V10A10,10,0,0,1,10,0Z" transform="translate(82) rotate(90)" fill="#dfac48"/>
  <path id="Rectangle_5-2" data-name="Rectangle 5" d="M0,0H0A10,10,0,0,1,10,10V20A10,10,0,0,1,0,30H0a0,0,0,0,1,0,0V0A0,0,0,0,1,0,0Z" transform="translate(249 90) rotate(90)" fill="#dfac48"/>
  <path id="Rectangle_4-2" data-name="Rectangle 4" d="M10,0h0a0,0,0,0,1,0,0V30a0,0,0,0,1,0,0h0A10,10,0,0,1,0,20V10A10,10,0,0,1,10,0Z" transform="translate(249) rotate(90)" fill="#dfac48"/>
  <path id="Rectangle_5-3" data-name="Rectangle 5" d="M0,0H0A10,10,0,0,1,10,10V20A10,10,0,0,1,0,30H0a0,0,0,0,1,0,0V0A0,0,0,0,1,0,0Z" transform="translate(116 90) rotate(90)" fill="#dfac48"/>
  <path id="Rectangle_4-3" data-name="Rectangle 4" d="M10,0h0a0,0,0,0,1,0,0V30a0,0,0,0,1,0,0h0A10,10,0,0,1,0,20V10A10,10,0,0,1,10,0Z" transform="translate(116) rotate(90)" fill="#dfac48"/>
  <path id="Rectangle_5-4" data-name="Rectangle 5" d="M0,0H0A10,10,0,0,1,10,10V20A10,10,0,0,1,0,30H0a0,0,0,0,1,0,0V0A0,0,0,0,1,0,0Z" transform="translate(282 90) rotate(90)" fill="#dfac48"/>
  <path id="Rectangle_4-4" data-name="Rectangle 4" d="M10,0h0a0,0,0,0,1,0,0V30a0,0,0,0,1,0,0h0A10,10,0,0,1,0,20V10A10,10,0,0,1,10,0Z" transform="translate(282) rotate(90)" fill="#dfac48"/>
  <path id="Rectangle_5-5" data-name="Rectangle 5" d="M0,0H0A10,10,0,0,1,10,10V20A10,10,0,0,1,0,30H0a0,0,0,0,1,0,0V0A0,0,0,0,1,0,0Z" transform="translate(149 90) rotate(90)" fill="#dfac48"/>
  <path id="Rectangle_4-5" data-name="Rectangle 4" d="M10,0h0a0,0,0,0,1,0,0V30a0,0,0,0,1,0,0h0A10,10,0,0,1,0,20V10A10,10,0,0,1,10,0Z" transform="translate(149) rotate(90)" fill="#dfac48"/>
  <path id="Rectangle_5-6" data-name="Rectangle 5" d="M0,0H0A10,10,0,0,1,10,10V20A10,10,0,0,1,0,30H0a0,0,0,0,1,0,0V0A0,0,0,0,1,0,0Z" transform="translate(182 90) rotate(90)" fill="#dfac48"/>
  <path id="Rectangle_4-6" data-name="Rectangle 4" d="M10,0h0a0,0,0,0,1,0,0V30a0,0,0,0,1,0,0h0A10,10,0,0,1,0,20V10A10,10,0,0,1,10,0Z" transform="translate(182) rotate(90)" fill="#dfac48"/>
  <path id="Rectangle_5-7" data-name="Rectangle 5" d="M0,0H0A10,10,0,0,1,10,10V20A10,10,0,0,1,0,30H0a0,0,0,0,1,0,0V0A0,0,0,0,1,0,0Z" transform="translate(49 90) rotate(90)" fill="#dfac48"/>
  <path id="Rectangle_4-7" data-name="Rectangle 4" d="M10,0h0a0,0,0,0,1,0,0V30a0,0,0,0,1,0,0h0A10,10,0,0,1,0,20V10A10,10,0,0,1,10,0Z" transform="translate(49) rotate(90)" fill="#dfac48"/>
  <path id="Rectangle_5-8" data-name="Rectangle 5" d="M0,0H0A10,10,0,0,1,10,10V20A10,10,0,0,1,0,30H0a0,0,0,0,1,0,0V0A0,0,0,0,1,0,0Z" transform="translate(216 90) rotate(90)" fill="#dfac48"/>
  <path id="Rectangle_4-8" data-name="Rectangle 4" d="M10,0h0a0,0,0,0,1,0,0V30a0,0,0,0,1,0,0h0A10,10,0,0,1,0,20V10A10,10,0,0,1,10,0Z" transform="translate(216) rotate(90)" fill="#dfac48"/>
  <rect id="Rectangle_2153" data-name="Rectangle 2153" width="20" height="3" rx="1.5" transform="translate(24.5 92.5)" fill="#917339"/>
  <rect id="Rectangle_2154" data-name="Rectangle 2154" width="20" height="3" rx="1.5" transform="translate(91.5 92.5)" fill="#917339"/>
  <rect id="Rectangle_2155" data-name="Rectangle 2155" width="20" height="3" rx="1.5" transform="translate(57.5 92.5)" fill="#917339"/>
  <rect id="Rectangle_2156" data-name="Rectangle 2156" width="20" height="3" rx="1.5" transform="translate(124.5 92.5)" fill="#917339"/>
  <rect id="Rectangle_2157" data-name="Rectangle 2157" width="20" height="3" rx="1.5" transform="translate(158.5 92.5)" fill="#917339"/>
  <rect id="Rectangle_2168" data-name="Rectangle 2168" width="20" height="3" rx="1.5" transform="translate(223.5 92.5)" fill="#917339"/>
  <rect id="Rectangle_2158" data-name="Rectangle 2158" width="20" height="3" rx="1.5" transform="translate(191.5 92.5)" fill="#917339"/>
  <rect id="Rectangle_2167" data-name="Rectangle 2167" width="20" height="3" rx="1.5" transform="translate(256.5 92.5)" fill="#917339"/>
  <rect id="Rectangle_2159" data-name="Rectangle 2159" width="20" height="3" rx="1.5" transform="translate(24.5 4.5)" fill="#917339"/>
  <rect id="Rectangle_2160" data-name="Rectangle 2160" width="20" height="3" rx="1.5" transform="translate(91.5 4.5)" fill="#917339"/>
  <rect id="Rectangle_2161" data-name="Rectangle 2161" width="20" height="3" rx="1.5" transform="translate(57.5 4.5)" fill="#917339"/>
  <rect id="Rectangle_2162" data-name="Rectangle 2162" width="20" height="3" rx="1.5" transform="translate(124.5 4.5)" fill="#917339"/>
  <rect id="Rectangle_2163" data-name="Rectangle 2163" width="20" height="3" rx="1.5" transform="translate(158.5 4.5)" fill="#917339"/>
  <rect id="Rectangle_2166" data-name="Rectangle 2166" width="20" height="3" rx="1.5" transform="translate(224.5 4.5)" fill="#917339"/>
  <rect id="Rectangle_2164" data-name="Rectangle 2164" width="20" height="3" rx="1.5" transform="translate(191.5 4.5)" fill="#917339"/>
  <rect id="Rectangle_2165" data-name="Rectangle 2165" width="20" height="3" rx="1.5" transform="translate(257.5 4.5)" fill="#917339"/>
  <path id="Rectangle_5-9" data-name="Rectangle 5" d="M0,0H0A10,10,0,0,1,10,10V20A10,10,0,0,1,0,30H0a0,0,0,0,1,0,0V0A0,0,0,0,1,0,0Z" transform="translate(10 65) rotate(-180)" fill="#dfac48"/>
  <path id="Rectangle_4-9" data-name="Rectangle 4" d="M10,0h0a0,0,0,0,1,0,0V30a0,0,0,0,1,0,0h0A10,10,0,0,1,0,20V10A10,10,0,0,1,10,0Z" transform="translate(302 65) rotate(-180)" fill="#dfac48"/>
  <rect id="Rectangle_2170" data-name="Rectangle 2170" width="20" height="3" rx="1.5" transform="translate(8 40) rotate(90)" fill="#917339"/>
  <rect id="Rectangle_2172" data-name="Rectangle 2172" width="20" height="3" rx="1.5" transform="translate(298 40) rotate(90)" fill="#917339"/>
</svg>
