<svg id="rectangle_yellow_8" xmlns="http://www.w3.org/2000/svg" width="120" height="100" viewBox="0 0 120 100">
  <rect id="Rectangle_1" data-name="Rectangle 1" width="100" height="80" rx="10" transform="translate(10 10)" fill="#fcd484"/>
  <path id="Rectangle_5" data-name="Rectangle 5" d="M0,0H0A10,10,0,0,1,10,10V20A10,10,0,0,1,0,30H0a0,0,0,0,1,0,0V0A0,0,0,0,1,0,0Z" transform="translate(96 90) rotate(90)" fill="#dfac48"/>
  <path id="Rectangle_4" data-name="Rectangle 4" d="M10,0h0a0,0,0,0,1,0,0V30a0,0,0,0,1,0,0h0A10,10,0,0,1,0,20V10A10,10,0,0,1,10,0Z" transform="translate(96) rotate(90)" fill="#dfac48"/>
  <path id="Rectangle_5-2" data-name="Rectangle 5" d="M0,0H0A10,10,0,0,1,10,10V20A10,10,0,0,1,0,30H0a0,0,0,0,1,0,0V0A0,0,0,0,1,0,0Z" transform="translate(10 82) rotate(180)" fill="#dfac48"/>
  <path id="Rectangle_4-2" data-name="Rectangle 4" d="M10,0h0a0,0,0,0,1,0,0V30a0,0,0,0,1,0,0h0A10,10,0,0,1,0,20V10A10,10,0,0,1,10,0Z" transform="translate(120 82) rotate(180)" fill="#dfac48"/>
  <path id="Rectangle_5-3" data-name="Rectangle 5" d="M0,0H0A10,10,0,0,1,10,10V20A10,10,0,0,1,0,30H0a0,0,0,0,1,0,0V0A0,0,0,0,1,0,0Z" transform="translate(10 48) rotate(180)" fill="#dfac48"/>
  <path id="Rectangle_4-3" data-name="Rectangle 4" d="M10,0h0a0,0,0,0,1,0,0V30a0,0,0,0,1,0,0h0A10,10,0,0,1,0,20V10A10,10,0,0,1,10,0Z" transform="translate(120 48) rotate(180)" fill="#dfac48"/>
  <path id="Rectangle_5-4" data-name="Rectangle 5" d="M0,0H0A10,10,0,0,1,10,10V20A10,10,0,0,1,0,30H0a0,0,0,0,1,0,0V0A0,0,0,0,1,0,0Z" transform="translate(56 90) rotate(90)" fill="#dfac48"/>
  <path id="Rectangle_4-4" data-name="Rectangle 4" d="M10,0h0a0,0,0,0,1,0,0V30a0,0,0,0,1,0,0h0A10,10,0,0,1,0,20V10A10,10,0,0,1,10,0Z" transform="translate(56) rotate(90)" fill="#dfac48"/>
  <rect id="Rectangle_1793" data-name="Rectangle 1793" width="20" height="3" rx="1.5" transform="translate(31.5 4.5)" fill="#917339"/>
  <rect id="Rectangle_2098" data-name="Rectangle 2098" width="20" height="3" rx="1.5" transform="translate(4 43) rotate(-90)" fill="#917339"/>
  <rect id="Rectangle_2127" data-name="Rectangle 2127" width="20" height="3" rx="1.5" transform="translate(4 77) rotate(-90)" fill="#917339"/>
  <rect id="Rectangle_1797" data-name="Rectangle 1797" width="20" height="3" rx="1.5" transform="translate(31.5 92.5)" fill="#917339"/>
  <rect id="Rectangle_2099" data-name="Rectangle 2099" width="20" height="3" rx="1.5" transform="translate(113 43) rotate(-90)" fill="#917339"/>
  <rect id="Rectangle_2126" data-name="Rectangle 2126" width="20" height="3" rx="1.5" transform="translate(113 77) rotate(-90)" fill="#917339"/>
  <rect id="Rectangle_1795" data-name="Rectangle 1795" width="20" height="3" rx="1.5" transform="translate(71.5 4.5)" fill="#917339"/>
  <rect id="Rectangle_1796" data-name="Rectangle 1796" width="20" height="3" rx="1.5" transform="translate(71.5 92.5)" fill="#917339"/>
</svg>
