<svg id="rectangle_gray_18" xmlns="http://www.w3.org/2000/svg" width="302" height="100" viewBox="0 0 302 100">
  <rect id="Rectangle_1" data-name="Rectangle 1" width="282" height="80" rx="10" transform="translate(10 10)" fill="#cbcbce"/>
  <g id="Group_1241" data-name="Group 1241" transform="translate(-139 -156)">
    <path id="Rectangle_5" data-name="Rectangle 5" d="M0,0H0A10,10,0,0,1,10,10V20A10,10,0,0,1,0,30H0a0,0,0,0,1,0,0V0A0,0,0,0,1,0,0Z" transform="translate(221 246) rotate(90)" fill="#a6a6aa"/>
    <path id="Rectangle_4" data-name="Rectangle 4" d="M10,0h0a0,0,0,0,1,0,0V30a0,0,0,0,1,0,0h0A10,10,0,0,1,0,20V10A10,10,0,0,1,10,0Z" transform="translate(221 156) rotate(90)" fill="#a6a6aa"/>
  </g>
  <g id="Group_1249" data-name="Group 1249" transform="translate(28 -156)">
    <path id="Rectangle_5-2" data-name="Rectangle 5" d="M0,0H0A10,10,0,0,1,10,10V20A10,10,0,0,1,0,30H0a0,0,0,0,1,0,0V0A0,0,0,0,1,0,0Z" transform="translate(221 246) rotate(90)" fill="#a6a6aa"/>
    <path id="Rectangle_4-2" data-name="Rectangle 4" d="M10,0h0a0,0,0,0,1,0,0V30a0,0,0,0,1,0,0h0A10,10,0,0,1,0,20V10A10,10,0,0,1,10,0Z" transform="translate(221 156) rotate(90)" fill="#a6a6aa"/>
  </g>
  <g id="Group_1243" data-name="Group 1243" transform="translate(-105 -156)">
    <path id="Rectangle_5-3" data-name="Rectangle 5" d="M0,0H0A10,10,0,0,1,10,10V20A10,10,0,0,1,0,30H0a0,0,0,0,1,0,0V0A0,0,0,0,1,0,0Z" transform="translate(221 246) rotate(90)" fill="#a6a6aa"/>
    <path id="Rectangle_4-3" data-name="Rectangle 4" d="M10,0h0a0,0,0,0,1,0,0V30a0,0,0,0,1,0,0h0A10,10,0,0,1,0,20V10A10,10,0,0,1,10,0Z" transform="translate(221 156) rotate(90)" fill="#a6a6aa"/>
  </g>
  <g id="Group_1248" data-name="Group 1248" transform="translate(61 -156)">
    <path id="Rectangle_5-4" data-name="Rectangle 5" d="M0,0H0A10,10,0,0,1,10,10V20A10,10,0,0,1,0,30H0a0,0,0,0,1,0,0V0A0,0,0,0,1,0,0Z" transform="translate(221 246) rotate(90)" fill="#a6a6aa"/>
    <path id="Rectangle_4-4" data-name="Rectangle 4" d="M10,0h0a0,0,0,0,1,0,0V30a0,0,0,0,1,0,0h0A10,10,0,0,1,0,20V10A10,10,0,0,1,10,0Z" transform="translate(221 156) rotate(90)" fill="#a6a6aa"/>
  </g>
  <g id="Group_1244" data-name="Group 1244" transform="translate(-72 -156)">
    <path id="Rectangle_5-5" data-name="Rectangle 5" d="M0,0H0A10,10,0,0,1,10,10V20A10,10,0,0,1,0,30H0a0,0,0,0,1,0,0V0A0,0,0,0,1,0,0Z" transform="translate(221 246) rotate(90)" fill="#a6a6aa"/>
    <path id="Rectangle_4-5" data-name="Rectangle 4" d="M10,0h0a0,0,0,0,1,0,0V30a0,0,0,0,1,0,0h0A10,10,0,0,1,0,20V10A10,10,0,0,1,10,0Z" transform="translate(221 156) rotate(90)" fill="#a6a6aa"/>
  </g>
  <g id="Group_1245" data-name="Group 1245" transform="translate(-39 -156)">
    <path id="Rectangle_5-6" data-name="Rectangle 5" d="M0,0H0A10,10,0,0,1,10,10V20A10,10,0,0,1,0,30H0a0,0,0,0,1,0,0V0A0,0,0,0,1,0,0Z" transform="translate(221 246) rotate(90)" fill="#a6a6aa"/>
    <path id="Rectangle_4-6" data-name="Rectangle 4" d="M10,0h0a0,0,0,0,1,0,0V30a0,0,0,0,1,0,0h0A10,10,0,0,1,0,20V10A10,10,0,0,1,10,0Z" transform="translate(221 156) rotate(90)" fill="#a6a6aa"/>
  </g>
  <g id="Group_1242" data-name="Group 1242" transform="translate(-172 -156)">
    <path id="Rectangle_5-7" data-name="Rectangle 5" d="M0,0H0A10,10,0,0,1,10,10V20A10,10,0,0,1,0,30H0a0,0,0,0,1,0,0V0A0,0,0,0,1,0,0Z" transform="translate(221 246) rotate(90)" fill="#a6a6aa"/>
    <path id="Rectangle_4-7" data-name="Rectangle 4" d="M10,0h0a0,0,0,0,1,0,0V30a0,0,0,0,1,0,0h0A10,10,0,0,1,0,20V10A10,10,0,0,1,10,0Z" transform="translate(221 156) rotate(90)" fill="#a6a6aa"/>
  </g>
  <g id="Group_1250" data-name="Group 1250" transform="translate(-5 -156)">
    <path id="Rectangle_5-8" data-name="Rectangle 5" d="M0,0H0A10,10,0,0,1,10,10V20A10,10,0,0,1,0,30H0a0,0,0,0,1,0,0V0A0,0,0,0,1,0,0Z" transform="translate(221 246) rotate(90)" fill="#a6a6aa"/>
    <path id="Rectangle_4-8" data-name="Rectangle 4" d="M10,0h0a0,0,0,0,1,0,0V30a0,0,0,0,1,0,0h0A10,10,0,0,1,0,20V10A10,10,0,0,1,10,0Z" transform="translate(221 156) rotate(90)" fill="#a6a6aa"/>
  </g>
  <rect id="Rectangle_2153" data-name="Rectangle 2153" width="20" height="3" rx="1.5" transform="translate(24.5 92.5)" fill="#898989"/>
  <rect id="Rectangle_2154" data-name="Rectangle 2154" width="20" height="3" rx="1.5" transform="translate(91.5 92.5)" fill="#898989"/>
  <rect id="Rectangle_2155" data-name="Rectangle 2155" width="20" height="3" rx="1.5" transform="translate(57.5 92.5)" fill="#898989"/>
  <rect id="Rectangle_2156" data-name="Rectangle 2156" width="20" height="3" rx="1.5" transform="translate(124.5 92.5)" fill="#898989"/>
  <rect id="Rectangle_2157" data-name="Rectangle 2157" width="20" height="3" rx="1.5" transform="translate(158.5 92.5)" fill="#898989"/>
  <rect id="Rectangle_2168" data-name="Rectangle 2168" width="20" height="3" rx="1.5" transform="translate(223.5 92.5)" fill="#898989"/>
  <rect id="Rectangle_2158" data-name="Rectangle 2158" width="20" height="3" rx="1.5" transform="translate(191.5 92.5)" fill="#898989"/>
  <rect id="Rectangle_2167" data-name="Rectangle 2167" width="20" height="3" rx="1.5" transform="translate(256.5 92.5)" fill="#898989"/>
  <rect id="Rectangle_2159" data-name="Rectangle 2159" width="20" height="3" rx="1.5" transform="translate(24.5 4.5)" fill="#898989"/>
  <rect id="Rectangle_2160" data-name="Rectangle 2160" width="20" height="3" rx="1.5" transform="translate(91.5 4.5)" fill="#898989"/>
  <rect id="Rectangle_2161" data-name="Rectangle 2161" width="20" height="3" rx="1.5" transform="translate(57.5 4.5)" fill="#898989"/>
  <rect id="Rectangle_2162" data-name="Rectangle 2162" width="20" height="3" rx="1.5" transform="translate(124.5 4.5)" fill="#898989"/>
  <rect id="Rectangle_2163" data-name="Rectangle 2163" width="20" height="3" rx="1.5" transform="translate(158.5 4.5)" fill="#898989"/>
  <rect id="Rectangle_2166" data-name="Rectangle 2166" width="20" height="3" rx="1.5" transform="translate(224.5 4.5)" fill="#898989"/>
  <rect id="Rectangle_2164" data-name="Rectangle 2164" width="20" height="3" rx="1.5" transform="translate(191.5 4.5)" fill="#898989"/>
  <rect id="Rectangle_2165" data-name="Rectangle 2165" width="20" height="3" rx="1.5" transform="translate(257.5 4.5)" fill="#898989"/>
  <g id="Group_1382" data-name="Group 1382" transform="translate(256 -156) rotate(90)">
    <path id="Rectangle_5-9" data-name="Rectangle 5" d="M0,0H0A10,10,0,0,1,10,10V20A10,10,0,0,1,0,30H0a0,0,0,0,1,0,0V0A0,0,0,0,1,0,0Z" transform="translate(221 246) rotate(90)" fill="#a6a6aa"/>
    <path id="Rectangle_4-9" data-name="Rectangle 4" d="M10,0h0a0,0,0,0,1,0,0V30a0,0,0,0,1,0,0h0A10,10,0,0,1,0,20V10A10,10,0,0,1,10,0Z" transform="translate(221 -46) rotate(90)" fill="#a6a6aa"/>
  </g>
  <rect id="Rectangle_2170" data-name="Rectangle 2170" width="20" height="3" rx="1.5" transform="translate(8 40) rotate(90)" fill="#898989"/>
  <rect id="Rectangle_2172" data-name="Rectangle 2172" width="20" height="3" rx="1.5" transform="translate(298 40) rotate(90)" fill="#898989"/>
</svg>
