<svg id="rectangle_gray_14" xmlns="http://www.w3.org/2000/svg" width="200" height="100" viewBox="0 0 200 100">
  <rect id="Rectangle_1" data-name="Rectangle 1" width="180" height="80" rx="10" transform="translate(10 10)" fill="#cbcbce"/>
  <g id="Group_1241" data-name="Group 1241" transform="translate(-139 -156)">
    <path id="Rectangle_5" data-name="Rectangle 5" d="M0,0H0A10,10,0,0,1,10,10V20A10,10,0,0,1,0,30H0a0,0,0,0,1,0,0V0A0,0,0,0,1,0,0Z" transform="translate(221 246) rotate(90)" fill="#a6a6aa"/>
    <path id="Rectangle_4" data-name="Rectangle 4" d="M10,0h0a0,0,0,0,1,0,0V30a0,0,0,0,1,0,0h0A10,10,0,0,1,0,20V10A10,10,0,0,1,10,0Z" transform="translate(221 156) rotate(90)" fill="#a6a6aa"/>
  </g>
  <g id="Group_1243" data-name="Group 1243" transform="translate(-105 -156)">
    <path id="Rectangle_5-2" data-name="Rectangle 5" d="M0,0H0A10,10,0,0,1,10,10V20A10,10,0,0,1,0,30H0a0,0,0,0,1,0,0V0A0,0,0,0,1,0,0Z" transform="translate(221 246) rotate(90)" fill="#a6a6aa"/>
    <path id="Rectangle_4-2" data-name="Rectangle 4" d="M10,0h0a0,0,0,0,1,0,0V30a0,0,0,0,1,0,0h0A10,10,0,0,1,0,20V10A10,10,0,0,1,10,0Z" transform="translate(221 156) rotate(90)" fill="#a6a6aa"/>
  </g>
  <g id="Group_1244" data-name="Group 1244" transform="translate(-72 -156)">
    <path id="Rectangle_5-3" data-name="Rectangle 5" d="M0,0H0A10,10,0,0,1,10,10V20A10,10,0,0,1,0,30H0a0,0,0,0,1,0,0V0A0,0,0,0,1,0,0Z" transform="translate(221 246) rotate(90)" fill="#a6a6aa"/>
    <path id="Rectangle_4-3" data-name="Rectangle 4" d="M10,0h0a0,0,0,0,1,0,0V30a0,0,0,0,1,0,0h0A10,10,0,0,1,0,20V10A10,10,0,0,1,10,0Z" transform="translate(221 156) rotate(90)" fill="#a6a6aa"/>
  </g>
  <g id="Group_1245" data-name="Group 1245" transform="translate(-39 -156)">
    <path id="Rectangle_5-4" data-name="Rectangle 5" d="M0,0H0A10,10,0,0,1,10,10V20A10,10,0,0,1,0,30H0a0,0,0,0,1,0,0V0A0,0,0,0,1,0,0Z" transform="translate(221 246) rotate(90)" fill="#a6a6aa"/>
    <path id="Rectangle_4-4" data-name="Rectangle 4" d="M10,0h0a0,0,0,0,1,0,0V30a0,0,0,0,1,0,0h0A10,10,0,0,1,0,20V10A10,10,0,0,1,10,0Z" transform="translate(221 156) rotate(90)" fill="#a6a6aa"/>
  </g>
  <g id="Group_1242" data-name="Group 1242" transform="translate(-172 -156)">
    <path id="Rectangle_5-5" data-name="Rectangle 5" d="M0,0H0A10,10,0,0,1,10,10V20A10,10,0,0,1,0,30H0a0,0,0,0,1,0,0V0A0,0,0,0,1,0,0Z" transform="translate(221 246) rotate(90)" fill="#a6a6aa"/>
    <path id="Rectangle_4-5" data-name="Rectangle 4" d="M10,0h0a0,0,0,0,1,0,0V30a0,0,0,0,1,0,0h0A10,10,0,0,1,0,20V10A10,10,0,0,1,10,0Z" transform="translate(221 156) rotate(90)" fill="#a6a6aa"/>
  </g>
  <g id="Group_1376" data-name="Group 1376" transform="translate(256 -139) rotate(90)">
    <path id="Rectangle_5-6" data-name="Rectangle 5" d="M0,0H0A10,10,0,0,1,10,10V20A10,10,0,0,1,0,30H0a0,0,0,0,1,0,0V0A0,0,0,0,1,0,0Z" transform="translate(221 246) rotate(90)" fill="#a6a6aa"/>
    <path id="Rectangle_4-6" data-name="Rectangle 4" d="M10,0h0a0,0,0,0,1,0,0V30a0,0,0,0,1,0,0h0A10,10,0,0,1,0,20V10A10,10,0,0,1,10,0Z" transform="translate(221 56) rotate(90)" fill="#a6a6aa"/>
  </g>
  <g id="Group_1379" data-name="Group 1379" transform="translate(256 -172) rotate(90)">
    <path id="Rectangle_5-7" data-name="Rectangle 5" d="M0,0H0A10,10,0,0,1,10,10V20A10,10,0,0,1,0,30H0a0,0,0,0,1,0,0V0A0,0,0,0,1,0,0Z" transform="translate(221 246) rotate(90)" fill="#a6a6aa"/>
    <path id="Rectangle_4-7" data-name="Rectangle 4" d="M10,0h0a0,0,0,0,1,0,0V30a0,0,0,0,1,0,0h0A10,10,0,0,1,0,20V10A10,10,0,0,1,10,0Z" transform="translate(221 56) rotate(90)" fill="#a6a6aa"/>
  </g>
  <rect id="Rectangle_2114" data-name="Rectangle 2114" width="20" height="3" rx="1.5" transform="translate(196 25) rotate(90)" fill="#898989"/>
  <rect id="Rectangle_2130" data-name="Rectangle 2130" width="20" height="3" rx="1.5" transform="translate(196 58) rotate(90)" fill="#898989"/>
  <rect id="Rectangle_2115" data-name="Rectangle 2115" width="20" height="3" rx="1.5" transform="translate(7 24) rotate(90)" fill="#898989"/>
  <rect id="Rectangle_2131" data-name="Rectangle 2131" width="20" height="3" rx="1.5" transform="translate(7 57) rotate(90)" fill="#898989"/>
  <rect id="Rectangle_2118" data-name="Rectangle 2118" width="20" height="3" rx="1.5" transform="translate(24.5 92.5)" fill="#898989"/>
  <rect id="Rectangle_2119" data-name="Rectangle 2119" width="20" height="3" rx="1.5" transform="translate(91.5 92.5)" fill="#898989"/>
  <rect id="Rectangle_2122" data-name="Rectangle 2122" width="20" height="3" rx="1.5" transform="translate(57.5 92.5)" fill="#898989"/>
  <rect id="Rectangle_2123" data-name="Rectangle 2123" width="20" height="3" rx="1.5" transform="translate(124.5 92.5)" fill="#898989"/>
  <rect id="Rectangle_2124" data-name="Rectangle 2124" width="20" height="3" rx="1.5" transform="translate(156.5 92.5)" fill="#898989"/>
  <rect id="Rectangle_2132" data-name="Rectangle 2132" width="20" height="3" rx="1.5" transform="translate(24.5 4.5)" fill="#898989"/>
  <rect id="Rectangle_2133" data-name="Rectangle 2133" width="20" height="3" rx="1.5" transform="translate(91.5 4.5)" fill="#898989"/>
  <rect id="Rectangle_2134" data-name="Rectangle 2134" width="20" height="3" rx="1.5" transform="translate(57.5 4.5)" fill="#898989"/>
  <rect id="Rectangle_2135" data-name="Rectangle 2135" width="20" height="3" rx="1.5" transform="translate(124.5 4.5)" fill="#898989"/>
  <rect id="Rectangle_2136" data-name="Rectangle 2136" width="20" height="3" rx="1.5" transform="translate(156.5 4.5)" fill="#898989"/>
</svg>
