<svg id="round_blue_2" xmlns="http://www.w3.org/2000/svg" width="100" height="100" viewBox="0 0 100 100">
  <circle id="Ellipse_368" data-name="Ellipse 368" cx="50" cy="50" r="50" fill="blue" opacity="0"/>
  <g id="Group_1227" data-name="Group 1227" transform="translate(255 -127) rotate(90)">
    <path id="Rectangle_5" data-name="Rectangle 5" d="M0,0H3A10,10,0,0,1,13,10V20A10,10,0,0,1,3,30H0a0,0,0,0,1,0,0V0A0,0,0,0,1,0,0Z" transform="translate(193 242) rotate(90)" fill="#0c90b4"/>
    <path id="Rectangle_4" data-name="Rectangle 4" d="M10,0h3a0,0,0,0,1,0,0V30a0,0,0,0,1,0,0H10A10,10,0,0,1,0,20V10A10,10,0,0,1,10,0Z" transform="translate(193 155) rotate(90)" fill="#0c90b4"/>
  </g>
  <circle id="Ellipse_363" data-name="Ellipse 363" cx="41" cy="41" r="41" transform="translate(9 10)" fill="#00bff3"/>
  <rect id="Rectangle_2083" data-name="Rectangle 2083" width="20" height="3" rx="1.5" transform="translate(4 61) rotate(-90)" fill="#0ea9d4"/>
  <rect id="Rectangle_2084" data-name="Rectangle 2084" width="20" height="3" rx="1.5" transform="translate(94 61) rotate(-90)" fill="#0ea9d4"/>
</svg>
