<svg id="round_gray_4" xmlns="http://www.w3.org/2000/svg" width="100" height="100" viewBox="0 0 100 100">
  <g id="Group_1227" data-name="Group 1227" transform="translate(255 -128) rotate(90)">
    <path id="Rectangle_5" data-name="Rectangle 5" d="M0,0H3A10,10,0,0,1,13,10V20A10,10,0,0,1,3,30H0a0,0,0,0,1,0,0V0A0,0,0,0,1,0,0Z" transform="translate(193 242) rotate(90)" fill="#a6a6aa"/>
    <path id="Rectangle_4" data-name="Rectangle 4" d="M10,0h3a0,0,0,0,1,0,0V30a0,0,0,0,1,0,0H10A10,10,0,0,1,0,20V10A10,10,0,0,1,10,0Z" transform="translate(193 155) rotate(90)" fill="#a6a6aa"/>
  </g>
  <g id="Group_1237" data-name="Group 1237" transform="translate(228 255) rotate(180)">
    <path id="Rectangle_5-2" data-name="Rectangle 5" d="M0,0H3A10,10,0,0,1,13,10V20A10,10,0,0,1,3,30H0a0,0,0,0,1,0,0V0A0,0,0,0,1,0,0Z" transform="translate(193 242) rotate(90)" fill="#a6a6aa"/>
    <path id="Rectangle_4-2" data-name="Rectangle 4" d="M10,0h3a0,0,0,0,1,0,0V30a0,0,0,0,1,0,0H10A10,10,0,0,1,0,20V10A10,10,0,0,1,10,0Z" transform="translate(193 155) rotate(90)" fill="#a6a6aa"/>
  </g>
  <circle id="Ellipse_363" data-name="Ellipse 363" cx="41" cy="41" r="41" transform="translate(9 9)" fill="#cbcbce"/>
  <rect id="Rectangle_2076" data-name="Rectangle 2076" width="20" height="3" rx="1.5" transform="translate(40 4)" fill="#898989"/>
  <rect id="Rectangle_2077" data-name="Rectangle 2077" width="20" height="3" rx="1.5" transform="translate(3 60) rotate(-90)" fill="#898989"/>
  <rect id="Rectangle_2078" data-name="Rectangle 2078" width="20" height="3" rx="1.5" transform="translate(41 93)" fill="#898989"/>
  <rect id="Rectangle_2079" data-name="Rectangle 2079" width="20" height="3" rx="1.5" transform="translate(94 60) rotate(-90)" fill="#898989"/>
</svg>
