<svg id="round_gray_6" xmlns="http://www.w3.org/2000/svg" width="100" height="100" viewBox="0 0 100 100">
  <circle id="Ellipse_365" data-name="Ellipse 365" cx="50" cy="50" r="50" transform="translate(0)" fill="blue" opacity="0"/>
  <path id="Path_427" data-name="Path 427" d="M77.009,135.923l-1.5-2.6,25.98-15,1.5,2.6a10,10,0,0,1-3.66,13.66l-8.661,5a9.994,9.994,0,0,1-13.66-3.66Zm-28.475,3.293-8.572-5.151a10,10,0,0,1-3.422-13.722l1.545-2.571L63.8,133.223l-1.545,2.571a10,10,0,0,1-13.721,3.422ZM107,108.783v-30h3a10,10,0,0,1,10,10v10a10,10,0,0,1-10,10Zm-77,0a10,10,0,0,1-10-10v-10a10,10,0,0,1,10-10h3v30ZM76.2,54.342l1.545-2.571a10,10,0,0,1,13.722-3.422l8.572,5.151a10,10,0,0,1,3.421,13.722l-1.544,2.571ZM37.01,66.641a10,10,0,0,1,3.66-13.66l8.66-5a10,10,0,0,1,13.66,3.66l1.5,2.6-25.981,15Z" transform="translate(-20 -43.981)" fill="#a6a6aa"/>
  <circle id="Ellipse_363" data-name="Ellipse 363" cx="41" cy="41" r="41" transform="translate(9 9)" fill="#cbcbce"/>
  <g id="Group_1289" data-name="Group 1289" transform="translate(3.25 40.25)">
    <rect id="Rectangle_1822" data-name="Rectangle 1822" width="20" height="3" rx="1.5" transform="translate(93.5) rotate(90)" fill="#898989"/>
    <rect id="Rectangle_1823" data-name="Rectangle 1823" width="20" height="3" rx="1.5" transform="translate(3) rotate(90)" fill="#898989"/>
  </g>
  <g id="Group_1290" data-name="Group 1290" transform="translate(36.718 4.513) rotate(60)">
    <rect id="Rectangle_1822-2" data-name="Rectangle 1822" width="20" height="3" rx="1.5" transform="translate(92.634 0) rotate(90)" fill="#898989"/>
    <rect id="Rectangle_1823-2" data-name="Rectangle 1823" width="20" height="3" rx="1.5" transform="translate(3 0.5) rotate(90)" fill="#898989"/>
  </g>
  <g id="Group_1291" data-name="Group 1291" transform="translate(83.035 15.763) rotate(120)">
    <rect id="Rectangle_1822-3" data-name="Rectangle 1822" width="20" height="3" rx="1.5" transform="translate(92.268 1.866) rotate(90)" fill="#898989"/>
    <rect id="Rectangle_1823-3" data-name="Rectangle 1823" width="20" height="3" rx="1.5" transform="translate(3) rotate(90)" fill="#898989"/>
  </g>
</svg>
