<svg id="round_yellow_8" xmlns="http://www.w3.org/2000/svg" width="100" height="100" viewBox="0 0 100 100">
  <path id="Rectangle_5" data-name="Rectangle 5" d="M0,0H3A10,10,0,0,1,13,10V20A10,10,0,0,1,3,30H0a0,0,0,0,1,0,0V0A0,0,0,0,1,0,0Z" transform="translate(13 65) rotate(180)" fill="#dfac48"/>
  <path id="Rectangle_4" data-name="Rectangle 4" d="M10,0h3a0,0,0,0,1,0,0V30a0,0,0,0,1,0,0H10A10,10,0,0,1,0,20V10A10,10,0,0,1,10,0Z" transform="translate(100 65) rotate(180)" fill="#dfac48"/>
  <path id="Rectangle_5-2" data-name="Rectangle 5" d="M0,0H3A10,10,0,0,1,13,10V20A10,10,0,0,1,3,30H0a0,0,0,0,1,0,0V0A0,0,0,0,1,0,0Z" transform="translate(13.23 34.444) rotate(-135)" fill="#dfac48"/>
  <path id="Rectangle_4-2" data-name="Rectangle 4" d="M10,0h3a0,0,0,0,1,0,0V30a0,0,0,0,1,0,0H10A10,10,0,0,1,0,20V10A10,10,0,0,1,10,0Z" transform="translate(74.749 95.962) rotate(-135)" fill="#dfac48"/>
  <path id="Rectangle_5-3" data-name="Rectangle 5" d="M0,0H3A10,10,0,0,1,13,10V20A10,10,0,0,1,3,30H0a0,0,0,0,1,0,0V0A0,0,0,0,1,0,0Z" transform="translate(35 13) rotate(-90)" fill="#dfac48"/>
  <path id="Rectangle_4-3" data-name="Rectangle 4" d="M10,0h3a0,0,0,0,1,0,0V30a0,0,0,0,1,0,0H10A10,10,0,0,1,0,20V10A10,10,0,0,1,10,0Z" transform="translate(35 100) rotate(-90)" fill="#dfac48"/>
  <path id="Rectangle_5-4" data-name="Rectangle 5" d="M0,0H3A10,10,0,0,1,13,10V20A10,10,0,0,1,3,30H0a0,0,0,0,1,0,0V0A0,0,0,0,1,0,0Z" transform="translate(65.557 13.231) rotate(-45)" fill="#dfac48"/>
  <path id="Rectangle_4-4" data-name="Rectangle 4" d="M10,0h3a0,0,0,0,1,0,0V30a0,0,0,0,1,0,0H10A10,10,0,0,1,0,20V10A10,10,0,0,1,10,0Z" transform="translate(4.038 74.749) rotate(-45)" fill="#dfac48"/>
  <circle id="Ellipse_363" data-name="Ellipse 363" cx="41" cy="41" r="41" transform="translate(9 9)" fill="#fcd484"/>
  <rect id="Rectangle_1822" data-name="Rectangle 1822" width="20" height="3" rx="1.5" transform="translate(96.5 40.25) rotate(90)" fill="#917339"/>
  <rect id="Rectangle_1823" data-name="Rectangle 1823" width="20" height="3" rx="1.5" transform="translate(7 40.25) rotate(90)" fill="#917339"/>
  <rect id="Rectangle_1822-2" data-name="Rectangle 1822" width="20" height="3" rx="1.5" transform="translate(90.024 75.883) rotate(135)" fill="#917339"/>
  <rect id="Rectangle_1823-2" data-name="Rectangle 1823" width="20" height="3" rx="1.5" transform="translate(26.739 12.596) rotate(135)" fill="#917339"/>
  <rect id="Rectangle_1822-3" data-name="Rectangle 1822" width="20" height="3" rx="1.5" transform="translate(60.25 96.5) rotate(180)" fill="#917339"/>
  <rect id="Rectangle_1823-3" data-name="Rectangle 1823" width="20" height="3" rx="1.5" transform="translate(60.25 7) rotate(180)" fill="#917339"/>
  <rect id="Rectangle_1822-4" data-name="Rectangle 1822" width="20" height="3" rx="1.5" transform="translate(24.617 90.025) rotate(-135)" fill="#917339"/>
  <rect id="Rectangle_1823-4" data-name="Rectangle 1823" width="20" height="3" rx="1.5" transform="translate(87.903 26.739) rotate(-135)" fill="#917339"/>
</svg>
