<svg id="square_blue_8" xmlns="http://www.w3.org/2000/svg" width="100" height="100" viewBox="0 0 100 100">
  <rect id="Rectangle_1" data-name="Rectangle 1" width="80" height="80" rx="10" transform="translate(10 10)" fill="#00bff3"/>
  <g id="Group_1224" data-name="Group 1224" transform="translate(100 19) rotate(90)">
    <path id="Rectangle_5" data-name="Rectangle 5" d="M0,0H0A10,10,0,0,1,10,10V20A10,10,0,0,1,0,30H0a0,0,0,0,1,0,0V0A0,0,0,0,1,0,0Z" transform="translate(30 90) rotate(90)" fill="#0c90b4"/>
    <path id="Rectangle_7" data-name="Rectangle 7" d="M0,0H0A10,10,0,0,1,10,10V20A10,10,0,0,1,0,30H0a0,0,0,0,1,0,0V0A0,0,0,0,1,0,0Z" transform="translate(62 90) rotate(90)" fill="#0c90b4"/>
    <path id="Rectangle_4" data-name="Rectangle 4" d="M10,0h0a0,0,0,0,1,0,0V30a0,0,0,0,1,0,0h0A10,10,0,0,1,0,20V10A10,10,0,0,1,10,0Z" transform="translate(30) rotate(90)" fill="#0c90b4"/>
    <path id="Rectangle_6" data-name="Rectangle 6" d="M10,0h0a0,0,0,0,1,0,0V30a0,0,0,0,1,0,0h0A10,10,0,0,1,0,20V10A10,10,0,0,1,10,0Z" transform="translate(62) rotate(90)" fill="#0c90b4"/>
  </g>
  <g id="Group_1288" data-name="Group 1288" transform="translate(19)">
    <path id="Rectangle_5-2" data-name="Rectangle 5" d="M0,0H0A10,10,0,0,1,10,10V20A10,10,0,0,1,0,30H0a0,0,0,0,1,0,0V0A0,0,0,0,1,0,0Z" transform="translate(30 90) rotate(90)" fill="#0c90b4"/>
    <path id="Rectangle_7-2" data-name="Rectangle 7" d="M0,0H0A10,10,0,0,1,10,10V20A10,10,0,0,1,0,30H0a0,0,0,0,1,0,0V0A0,0,0,0,1,0,0Z" transform="translate(62 90) rotate(90)" fill="#0c90b4"/>
    <path id="Rectangle_4-2" data-name="Rectangle 4" d="M10,0h0a0,0,0,0,1,0,0V30a0,0,0,0,1,0,0h0A10,10,0,0,1,0,20V10A10,10,0,0,1,10,0Z" transform="translate(30) rotate(90)" fill="#0c90b4"/>
    <path id="Rectangle_6-2" data-name="Rectangle 6" d="M10,0h0a0,0,0,0,1,0,0V30a0,0,0,0,1,0,0h0A10,10,0,0,1,0,20V10A10,10,0,0,1,10,0Z" transform="translate(62) rotate(90)" fill="#0c90b4"/>
  </g>
  <rect id="Rectangle_1799" data-name="Rectangle 1799" width="20" height="3" rx="1.5" transform="translate(4 44) rotate(-90)" fill="#0ea9d4"/>
  <rect id="Rectangle_1800" data-name="Rectangle 1800" width="20" height="3" rx="1.5" transform="translate(4 76) rotate(-90)" fill="#0ea9d4"/>
  <rect id="Rectangle_1802" data-name="Rectangle 1802" width="20" height="3" rx="1.5" transform="translate(93 44) rotate(-90)" fill="#0ea9d4"/>
  <rect id="Rectangle_1803" data-name="Rectangle 1803" width="20" height="3" rx="1.5" transform="translate(93 76) rotate(-90)" fill="#0ea9d4"/>
  <rect id="Rectangle_1807" data-name="Rectangle 1807" width="20" height="3" rx="1.5" transform="translate(56 4)" fill="#0ea9d4"/>
  <rect id="Rectangle_1806" data-name="Rectangle 1806" width="20" height="3" rx="1.5" transform="translate(24 4)" fill="#0ea9d4"/>
  <rect id="Rectangle_1805" data-name="Rectangle 1805" width="20" height="3" rx="1.5" transform="translate(56 93)" fill="#0ea9d4"/>
  <rect id="Rectangle_1804" data-name="Rectangle 1804" width="20" height="3" rx="1.5" transform="translate(24 93)" fill="#0ea9d4"/>
</svg>
