<svg id="square_gray_4" xmlns="http://www.w3.org/2000/svg" width="100" height="100" viewBox="0 0 100 100">
  <rect id="Rectangle_1" data-name="Rectangle 1" width="80" height="80" rx="10" transform="translate(10 10)" fill="#cbcbce"/>
  <g id="Group_1223" data-name="Group 1223" transform="translate(35)">
    <path id="Rectangle_7" data-name="Rectangle 7" d="M0,0H0A10,10,0,0,1,10,10V20A10,10,0,0,1,0,30H0a0,0,0,0,1,0,0V0A0,0,0,0,1,0,0Z" transform="translate(30 90) rotate(90)" fill="#a6a6aa"/>
    <path id="Rectangle_6" data-name="Rectangle 6" d="M10,0h0a0,0,0,0,1,0,0V30a0,0,0,0,1,0,0h0A10,10,0,0,1,0,20V10A10,10,0,0,1,10,0Z" transform="translate(30) rotate(90)" fill="#a6a6aa"/>
  </g>
  <g id="Group_1224" data-name="Group 1224" transform="translate(100 35) rotate(90)">
    <path id="Rectangle_7-2" data-name="Rectangle 7" d="M0,0H0A10,10,0,0,1,10,10V20A10,10,0,0,1,0,30H0a0,0,0,0,1,0,0V0A0,0,0,0,1,0,0Z" transform="translate(30 90) rotate(90)" fill="#a6a6aa"/>
    <path id="Rectangle_6-2" data-name="Rectangle 6" d="M10,0h0a0,0,0,0,1,0,0V30a0,0,0,0,1,0,0h0A10,10,0,0,1,0,20V10A10,10,0,0,1,10,0Z" transform="translate(30) rotate(90)" fill="#a6a6aa"/>
  </g>
  <rect id="Rectangle_1788" data-name="Rectangle 1788" width="20" height="3" rx="1.5" transform="translate(40 4)" fill="#898989"/>
  <rect id="Rectangle_1791" data-name="Rectangle 1791" width="20" height="3" rx="1.5" transform="translate(4 60) rotate(-90)" fill="#898989"/>
  <rect id="Rectangle_1789" data-name="Rectangle 1789" width="20" height="3" rx="1.5" transform="translate(40 92)" fill="#898989"/>
  <rect id="Rectangle_1790" data-name="Rectangle 1790" width="20" height="3" rx="1.5" transform="translate(92 60) rotate(-90)" fill="#898989"/>
</svg>
