<svg id="vertical_rectangle_yellow_16" xmlns="http://www.w3.org/2000/svg" width="100" height="236" viewBox="0 0 100 236">
  <rect id="Rectangle_1" data-name="Rectangle 1" width="216" height="80" rx="10" transform="translate(90 10) rotate(90)" fill="#fcd484"/>
  <path id="Rectangle_5" data-name="Rectangle 5" d="M0,0H0A10,10,0,0,1,10,10V20A10,10,0,0,1,0,30H0a0,0,0,0,1,0,0V0A0,0,0,0,1,0,0Z" transform="translate(10 82) rotate(180)" fill="#dfac48"/>
  <path id="Rectangle_4" data-name="Rectangle 4" d="M10,0h0a0,0,0,0,1,0,0V30a0,0,0,0,1,0,0h0A10,10,0,0,1,0,20V10A10,10,0,0,1,10,0Z" transform="translate(100 82) rotate(180)" fill="#dfac48"/>
  <path id="Rectangle_5-2" data-name="Rectangle 5" d="M0,0H0A10,10,0,0,1,10,10V20A10,10,0,0,1,0,30H0a0,0,0,0,1,0,0V0A0,0,0,0,1,0,0Z" transform="translate(10 116) rotate(180)" fill="#dfac48"/>
  <path id="Rectangle_4-2" data-name="Rectangle 4" d="M10,0h0a0,0,0,0,1,0,0V30a0,0,0,0,1,0,0h0A10,10,0,0,1,0,20V10A10,10,0,0,1,10,0Z" transform="translate(100 116) rotate(180)" fill="#dfac48"/>
  <path id="Rectangle_5-3" data-name="Rectangle 5" d="M0,0H0A10,10,0,0,1,10,10V20A10,10,0,0,1,0,30H0a0,0,0,0,1,0,0V0A0,0,0,0,1,0,0Z" transform="translate(10 149) rotate(180)" fill="#dfac48"/>
  <path id="Rectangle_4-3" data-name="Rectangle 4" d="M10,0h0a0,0,0,0,1,0,0V30a0,0,0,0,1,0,0h0A10,10,0,0,1,0,20V10A10,10,0,0,1,10,0Z" transform="translate(100 149) rotate(180)" fill="#dfac48"/>
  <path id="Rectangle_5-4" data-name="Rectangle 5" d="M0,0H0A10,10,0,0,1,10,10V20A10,10,0,0,1,0,30H0a0,0,0,0,1,0,0V0A0,0,0,0,1,0,0Z" transform="translate(10 183) rotate(180)" fill="#dfac48"/>
  <path id="Rectangle_4-4" data-name="Rectangle 4" d="M10,0h0a0,0,0,0,1,0,0V30a0,0,0,0,1,0,0h0A10,10,0,0,1,0,20V10A10,10,0,0,1,10,0Z" transform="translate(100 183) rotate(180)" fill="#dfac48"/>
  <path id="Rectangle_5-5" data-name="Rectangle 5" d="M0,0H0A10,10,0,0,1,10,10V20A10,10,0,0,1,0,30H0a0,0,0,0,1,0,0V0A0,0,0,0,1,0,0Z" transform="translate(10 49) rotate(180)" fill="#dfac48"/>
  <path id="Rectangle_4-5" data-name="Rectangle 4" d="M10,0h0a0,0,0,0,1,0,0V30a0,0,0,0,1,0,0h0A10,10,0,0,1,0,20V10A10,10,0,0,1,10,0Z" transform="translate(100 49) rotate(180)" fill="#dfac48"/>
  <path id="Rectangle_5-6" data-name="Rectangle 5" d="M0,0H0A10,10,0,0,1,10,10V20A10,10,0,0,1,0,30H0a0,0,0,0,1,0,0V0A0,0,0,0,1,0,0Z" transform="translate(10 216) rotate(180)" fill="#dfac48"/>
  <path id="Rectangle_4-6" data-name="Rectangle 4" d="M10,0h0a0,0,0,0,1,0,0V30a0,0,0,0,1,0,0h0A10,10,0,0,1,0,20V10A10,10,0,0,1,10,0Z" transform="translate(100 216) rotate(180)" fill="#dfac48"/>
  <rect id="Rectangle_2137" data-name="Rectangle 2137" width="20" height="3" rx="1.5" transform="translate(7.5 24.5) rotate(90)" fill="#917339"/>
  <rect id="Rectangle_2138" data-name="Rectangle 2138" width="20" height="3" rx="1.5" transform="translate(7.5 91.5) rotate(90)" fill="#917339"/>
  <rect id="Rectangle_2139" data-name="Rectangle 2139" width="20" height="3" rx="1.5" transform="translate(7.5 57.5) rotate(90)" fill="#917339"/>
  <rect id="Rectangle_2140" data-name="Rectangle 2140" width="20" height="3" rx="1.5" transform="translate(7.5 124.5) rotate(90)" fill="#917339"/>
  <rect id="Rectangle_2141" data-name="Rectangle 2141" width="20" height="3" rx="1.5" transform="translate(7.5 158.5) rotate(90)" fill="#917339"/>
  <rect id="Rectangle_2148" data-name="Rectangle 2148" width="20" height="3" rx="1.5" transform="translate(7.5 191.5) rotate(90)" fill="#917339"/>
  <rect id="Rectangle_2142" data-name="Rectangle 2142" width="20" height="3" rx="1.5" transform="translate(95.5 24.5) rotate(90)" fill="#917339"/>
  <rect id="Rectangle_2143" data-name="Rectangle 2143" width="20" height="3" rx="1.5" transform="translate(95.5 91.5) rotate(90)" fill="#917339"/>
  <rect id="Rectangle_2144" data-name="Rectangle 2144" width="20" height="3" rx="1.5" transform="translate(95.5 57.5) rotate(90)" fill="#917339"/>
  <rect id="Rectangle_2145" data-name="Rectangle 2145" width="20" height="3" rx="1.5" transform="translate(95.5 124.5) rotate(90)" fill="#917339"/>
  <rect id="Rectangle_2146" data-name="Rectangle 2146" width="20" height="3" rx="1.5" transform="translate(95.5 158.5) rotate(90)" fill="#917339"/>
  <rect id="Rectangle_2147" data-name="Rectangle 2147" width="20" height="3" rx="1.5" transform="translate(95.5 191.5) rotate(90)" fill="#917339"/>
  <path id="Rectangle_5-7" data-name="Rectangle 5" d="M0,0H0A10,10,0,0,1,10,10V20A10,10,0,0,1,0,30H0a0,0,0,0,1,0,0V0A0,0,0,0,1,0,0Z" transform="translate(19 10) rotate(-90)" fill="#dfac48"/>
  <path id="Rectangle_4-7" data-name="Rectangle 4" d="M10,0h0a0,0,0,0,1,0,0V30a0,0,0,0,1,0,0h0A10,10,0,0,1,0,20V10A10,10,0,0,1,10,0Z" transform="translate(19 236) rotate(-90)" fill="#dfac48"/>
  <path id="Rectangle_5-8" data-name="Rectangle 5" d="M0,0H0A10,10,0,0,1,10,10V20A10,10,0,0,1,0,30H0a0,0,0,0,1,0,0V0A0,0,0,0,1,0,0Z" transform="translate(51 10) rotate(-90)" fill="#dfac48"/>
  <path id="Rectangle_4-8" data-name="Rectangle 4" d="M10,0h0a0,0,0,0,1,0,0V30a0,0,0,0,1,0,0h0A10,10,0,0,1,0,20V10A10,10,0,0,1,10,0Z" transform="translate(51 236) rotate(-90)" fill="#dfac48"/>
  <rect id="Rectangle_2149" data-name="Rectangle 2149" width="20" height="3" rx="1.5" transform="translate(75 231) rotate(-180)" fill="#917339"/>
  <rect id="Rectangle_2150" data-name="Rectangle 2150" width="20" height="3" rx="1.5" transform="translate(43 231) rotate(-180)" fill="#917339"/>
  <rect id="Rectangle_2151" data-name="Rectangle 2151" width="20" height="3" rx="1.5" transform="translate(76 7) rotate(-180)" fill="#917339"/>
  <rect id="Rectangle_2152" data-name="Rectangle 2152" width="20" height="3" rx="1.5" transform="translate(44 7) rotate(-180)" fill="#917339"/>
</svg>
