<svg id="vertical-rectangle_gray_18" xmlns="http://www.w3.org/2000/svg" width="100" height="302" viewBox="0 0 100 302">
  <g id="_18ghe-xam-hcn-dung" data-name="18ghe-xam-hcn-dung" transform="translate(900 -396) rotate(90)">
    <rect id="Rectangle_1" data-name="Rectangle 1" width="282" height="80" rx="10" transform="translate(406 810)" fill="#cbcbce"/>
    <g id="Group_1241" data-name="Group 1241" transform="translate(257 644)">
      <path id="Rectangle_5" data-name="Rectangle 5" d="M0,0H0A10,10,0,0,1,10,10V20A10,10,0,0,1,0,30H0a0,0,0,0,1,0,0V0A0,0,0,0,1,0,0Z" transform="translate(221 246) rotate(90)" fill="#a6a6aa"/>
      <path id="Rectangle_4" data-name="Rectangle 4" d="M10,0h0a0,0,0,0,1,0,0V30a0,0,0,0,1,0,0h0A10,10,0,0,1,0,20V10A10,10,0,0,1,10,0Z" transform="translate(221 156) rotate(90)" fill="#a6a6aa"/>
    </g>
    <g id="Group_1249" data-name="Group 1249" transform="translate(424 644)">
      <path id="Rectangle_5-2" data-name="Rectangle 5" d="M0,0H0A10,10,0,0,1,10,10V20A10,10,0,0,1,0,30H0a0,0,0,0,1,0,0V0A0,0,0,0,1,0,0Z" transform="translate(221 246) rotate(90)" fill="#a6a6aa"/>
      <path id="Rectangle_4-2" data-name="Rectangle 4" d="M10,0h0a0,0,0,0,1,0,0V30a0,0,0,0,1,0,0h0A10,10,0,0,1,0,20V10A10,10,0,0,1,10,0Z" transform="translate(221 156) rotate(90)" fill="#a6a6aa"/>
    </g>
    <g id="Group_1243" data-name="Group 1243" transform="translate(291 644)">
      <path id="Rectangle_5-3" data-name="Rectangle 5" d="M0,0H0A10,10,0,0,1,10,10V20A10,10,0,0,1,0,30H0a0,0,0,0,1,0,0V0A0,0,0,0,1,0,0Z" transform="translate(221 246) rotate(90)" fill="#a6a6aa"/>
      <path id="Rectangle_4-3" data-name="Rectangle 4" d="M10,0h0a0,0,0,0,1,0,0V30a0,0,0,0,1,0,0h0A10,10,0,0,1,0,20V10A10,10,0,0,1,10,0Z" transform="translate(221 156) rotate(90)" fill="#a6a6aa"/>
    </g>
    <g id="Group_1248" data-name="Group 1248" transform="translate(457 644)">
      <path id="Rectangle_5-4" data-name="Rectangle 5" d="M0,0H0A10,10,0,0,1,10,10V20A10,10,0,0,1,0,30H0a0,0,0,0,1,0,0V0A0,0,0,0,1,0,0Z" transform="translate(221 246) rotate(90)" fill="#a6a6aa"/>
      <path id="Rectangle_4-4" data-name="Rectangle 4" d="M10,0h0a0,0,0,0,1,0,0V30a0,0,0,0,1,0,0h0A10,10,0,0,1,0,20V10A10,10,0,0,1,10,0Z" transform="translate(221 156) rotate(90)" fill="#a6a6aa"/>
    </g>
    <g id="Group_1244" data-name="Group 1244" transform="translate(324 644)">
      <path id="Rectangle_5-5" data-name="Rectangle 5" d="M0,0H0A10,10,0,0,1,10,10V20A10,10,0,0,1,0,30H0a0,0,0,0,1,0,0V0A0,0,0,0,1,0,0Z" transform="translate(221 246) rotate(90)" fill="#a6a6aa"/>
      <path id="Rectangle_4-5" data-name="Rectangle 4" d="M10,0h0a0,0,0,0,1,0,0V30a0,0,0,0,1,0,0h0A10,10,0,0,1,0,20V10A10,10,0,0,1,10,0Z" transform="translate(221 156) rotate(90)" fill="#a6a6aa"/>
    </g>
    <g id="Group_1245" data-name="Group 1245" transform="translate(357 644)">
      <path id="Rectangle_5-6" data-name="Rectangle 5" d="M0,0H0A10,10,0,0,1,10,10V20A10,10,0,0,1,0,30H0a0,0,0,0,1,0,0V0A0,0,0,0,1,0,0Z" transform="translate(221 246) rotate(90)" fill="#a6a6aa"/>
      <path id="Rectangle_4-6" data-name="Rectangle 4" d="M10,0h0a0,0,0,0,1,0,0V30a0,0,0,0,1,0,0h0A10,10,0,0,1,0,20V10A10,10,0,0,1,10,0Z" transform="translate(221 156) rotate(90)" fill="#a6a6aa"/>
    </g>
    <g id="Group_1242" data-name="Group 1242" transform="translate(224 644)">
      <path id="Rectangle_5-7" data-name="Rectangle 5" d="M0,0H0A10,10,0,0,1,10,10V20A10,10,0,0,1,0,30H0a0,0,0,0,1,0,0V0A0,0,0,0,1,0,0Z" transform="translate(221 246) rotate(90)" fill="#a6a6aa"/>
      <path id="Rectangle_4-7" data-name="Rectangle 4" d="M10,0h0a0,0,0,0,1,0,0V30a0,0,0,0,1,0,0h0A10,10,0,0,1,0,20V10A10,10,0,0,1,10,0Z" transform="translate(221 156) rotate(90)" fill="#a6a6aa"/>
    </g>
    <g id="Group_1250" data-name="Group 1250" transform="translate(391 644)">
      <path id="Rectangle_5-8" data-name="Rectangle 5" d="M0,0H0A10,10,0,0,1,10,10V20A10,10,0,0,1,0,30H0a0,0,0,0,1,0,0V0A0,0,0,0,1,0,0Z" transform="translate(221 246) rotate(90)" fill="#a6a6aa"/>
      <path id="Rectangle_4-8" data-name="Rectangle 4" d="M10,0h0a0,0,0,0,1,0,0V30a0,0,0,0,1,0,0h0A10,10,0,0,1,0,20V10A10,10,0,0,1,10,0Z" transform="translate(221 156) rotate(90)" fill="#a6a6aa"/>
    </g>
    <rect id="Rectangle_2153" data-name="Rectangle 2153" width="20" height="3" rx="1.5" transform="translate(420.5 892.5)" fill="#898989"/>
    <rect id="Rectangle_2154" data-name="Rectangle 2154" width="20" height="3" rx="1.5" transform="translate(487.5 892.5)" fill="#898989"/>
    <rect id="Rectangle_2155" data-name="Rectangle 2155" width="20" height="3" rx="1.5" transform="translate(453.5 892.5)" fill="#898989"/>
    <rect id="Rectangle_2156" data-name="Rectangle 2156" width="20" height="3" rx="1.5" transform="translate(520.5 892.5)" fill="#898989"/>
    <rect id="Rectangle_2157" data-name="Rectangle 2157" width="20" height="3" rx="1.5" transform="translate(554.5 892.5)" fill="#898989"/>
    <rect id="Rectangle_2168" data-name="Rectangle 2168" width="20" height="3" rx="1.5" transform="translate(619.5 892.5)" fill="#898989"/>
    <rect id="Rectangle_2158" data-name="Rectangle 2158" width="20" height="3" rx="1.5" transform="translate(587.5 892.5)" fill="#898989"/>
    <rect id="Rectangle_2167" data-name="Rectangle 2167" width="20" height="3" rx="1.5" transform="translate(652.5 892.5)" fill="#898989"/>
    <rect id="Rectangle_2159" data-name="Rectangle 2159" width="20" height="3" rx="1.5" transform="translate(420.5 804.5)" fill="#898989"/>
    <rect id="Rectangle_2160" data-name="Rectangle 2160" width="20" height="3" rx="1.5" transform="translate(487.5 804.5)" fill="#898989"/>
    <rect id="Rectangle_2161" data-name="Rectangle 2161" width="20" height="3" rx="1.5" transform="translate(453.5 804.5)" fill="#898989"/>
    <rect id="Rectangle_2162" data-name="Rectangle 2162" width="20" height="3" rx="1.5" transform="translate(520.5 804.5)" fill="#898989"/>
    <rect id="Rectangle_2163" data-name="Rectangle 2163" width="20" height="3" rx="1.5" transform="translate(554.5 804.5)" fill="#898989"/>
    <rect id="Rectangle_2166" data-name="Rectangle 2166" width="20" height="3" rx="1.5" transform="translate(620.5 804.5)" fill="#898989"/>
    <rect id="Rectangle_2164" data-name="Rectangle 2164" width="20" height="3" rx="1.5" transform="translate(587.5 804.5)" fill="#898989"/>
    <rect id="Rectangle_2165" data-name="Rectangle 2165" width="20" height="3" rx="1.5" transform="translate(653.5 804.5)" fill="#898989"/>
    <g id="Group_1382" data-name="Group 1382" transform="translate(652 644) rotate(90)">
      <path id="Rectangle_5-9" data-name="Rectangle 5" d="M0,0H0A10,10,0,0,1,10,10V20A10,10,0,0,1,0,30H0a0,0,0,0,1,0,0V0A0,0,0,0,1,0,0Z" transform="translate(221 246) rotate(90)" fill="#a6a6aa"/>
      <path id="Rectangle_4-9" data-name="Rectangle 4" d="M10,0h0a0,0,0,0,1,0,0V30a0,0,0,0,1,0,0h0A10,10,0,0,1,0,20V10A10,10,0,0,1,10,0Z" transform="translate(221 -46) rotate(90)" fill="#a6a6aa"/>
    </g>
    <rect id="Rectangle_2170" data-name="Rectangle 2170" width="20" height="3" rx="1.5" transform="translate(404 840) rotate(90)" fill="#898989"/>
    <rect id="Rectangle_2172" data-name="Rectangle 2172" width="20" height="3" rx="1.5" transform="translate(694 840) rotate(90)" fill="#898989"/>
  </g>
</svg>
