<svg id="vertical_rectangle_yellow_18" xmlns="http://www.w3.org/2000/svg" width="100" height="302" viewBox="0 0 100 302">
  <rect id="Rectangle_1" data-name="Rectangle 1" width="282" height="80" rx="10" transform="translate(90 10) rotate(90)" fill="#fcd484"/>
  <path id="Rectangle_5" data-name="Rectangle 5" d="M0,0H0A10,10,0,0,1,10,10V20A10,10,0,0,1,0,30H0a0,0,0,0,1,0,0V0A0,0,0,0,1,0,0Z" transform="translate(10 82) rotate(180)" fill="#dfac48"/>
  <path id="Rectangle_4" data-name="Rectangle 4" d="M10,0h0a0,0,0,0,1,0,0V30a0,0,0,0,1,0,0h0A10,10,0,0,1,0,20V10A10,10,0,0,1,10,0Z" transform="translate(100 82) rotate(180)" fill="#dfac48"/>
  <path id="Rectangle_5-2" data-name="Rectangle 5" d="M0,0H0A10,10,0,0,1,10,10V20A10,10,0,0,1,0,30H0a0,0,0,0,1,0,0V0A0,0,0,0,1,0,0Z" transform="translate(10 249) rotate(180)" fill="#dfac48"/>
  <path id="Rectangle_4-2" data-name="Rectangle 4" d="M10,0h0a0,0,0,0,1,0,0V30a0,0,0,0,1,0,0h0A10,10,0,0,1,0,20V10A10,10,0,0,1,10,0Z" transform="translate(100 249) rotate(180)" fill="#dfac48"/>
  <path id="Rectangle_5-3" data-name="Rectangle 5" d="M0,0H0A10,10,0,0,1,10,10V20A10,10,0,0,1,0,30H0a0,0,0,0,1,0,0V0A0,0,0,0,1,0,0Z" transform="translate(10 116) rotate(180)" fill="#dfac48"/>
  <path id="Rectangle_4-3" data-name="Rectangle 4" d="M10,0h0a0,0,0,0,1,0,0V30a0,0,0,0,1,0,0h0A10,10,0,0,1,0,20V10A10,10,0,0,1,10,0Z" transform="translate(100 116) rotate(180)" fill="#dfac48"/>
  <path id="Rectangle_5-4" data-name="Rectangle 5" d="M0,0H0A10,10,0,0,1,10,10V20A10,10,0,0,1,0,30H0a0,0,0,0,1,0,0V0A0,0,0,0,1,0,0Z" transform="translate(10 282) rotate(180)" fill="#dfac48"/>
  <path id="Rectangle_4-4" data-name="Rectangle 4" d="M10,0h0a0,0,0,0,1,0,0V30a0,0,0,0,1,0,0h0A10,10,0,0,1,0,20V10A10,10,0,0,1,10,0Z" transform="translate(100 282) rotate(180)" fill="#dfac48"/>
  <path id="Rectangle_5-5" data-name="Rectangle 5" d="M0,0H0A10,10,0,0,1,10,10V20A10,10,0,0,1,0,30H0a0,0,0,0,1,0,0V0A0,0,0,0,1,0,0Z" transform="translate(10 149) rotate(180)" fill="#dfac48"/>
  <path id="Rectangle_4-5" data-name="Rectangle 4" d="M10,0h0a0,0,0,0,1,0,0V30a0,0,0,0,1,0,0h0A10,10,0,0,1,0,20V10A10,10,0,0,1,10,0Z" transform="translate(100 149) rotate(180)" fill="#dfac48"/>
  <path id="Rectangle_5-6" data-name="Rectangle 5" d="M0,0H0A10,10,0,0,1,10,10V20A10,10,0,0,1,0,30H0a0,0,0,0,1,0,0V0A0,0,0,0,1,0,0Z" transform="translate(10 182) rotate(180)" fill="#dfac48"/>
  <path id="Rectangle_4-6" data-name="Rectangle 4" d="M10,0h0a0,0,0,0,1,0,0V30a0,0,0,0,1,0,0h0A10,10,0,0,1,0,20V10A10,10,0,0,1,10,0Z" transform="translate(100 182) rotate(180)" fill="#dfac48"/>
  <path id="Rectangle_5-7" data-name="Rectangle 5" d="M0,0H0A10,10,0,0,1,10,10V20A10,10,0,0,1,0,30H0a0,0,0,0,1,0,0V0A0,0,0,0,1,0,0Z" transform="translate(10 49) rotate(180)" fill="#dfac48"/>
  <path id="Rectangle_4-7" data-name="Rectangle 4" d="M10,0h0a0,0,0,0,1,0,0V30a0,0,0,0,1,0,0h0A10,10,0,0,1,0,20V10A10,10,0,0,1,10,0Z" transform="translate(100 49) rotate(180)" fill="#dfac48"/>
  <path id="Rectangle_5-8" data-name="Rectangle 5" d="M0,0H0A10,10,0,0,1,10,10V20A10,10,0,0,1,0,30H0a0,0,0,0,1,0,0V0A0,0,0,0,1,0,0Z" transform="translate(10 216) rotate(180)" fill="#dfac48"/>
  <path id="Rectangle_4-8" data-name="Rectangle 4" d="M10,0h0a0,0,0,0,1,0,0V30a0,0,0,0,1,0,0h0A10,10,0,0,1,0,20V10A10,10,0,0,1,10,0Z" transform="translate(100 216) rotate(180)" fill="#dfac48"/>
  <rect id="Rectangle_2153" data-name="Rectangle 2153" width="20" height="3" rx="1.5" transform="translate(7.5 24.5) rotate(90)" fill="#917339"/>
  <rect id="Rectangle_2154" data-name="Rectangle 2154" width="20" height="3" rx="1.5" transform="translate(7.5 91.5) rotate(90)" fill="#917339"/>
  <rect id="Rectangle_2155" data-name="Rectangle 2155" width="20" height="3" rx="1.5" transform="translate(7.5 57.5) rotate(90)" fill="#917339"/>
  <rect id="Rectangle_2156" data-name="Rectangle 2156" width="20" height="3" rx="1.5" transform="translate(7.5 124.5) rotate(90)" fill="#917339"/>
  <rect id="Rectangle_2157" data-name="Rectangle 2157" width="20" height="3" rx="1.5" transform="translate(7.5 158.5) rotate(90)" fill="#917339"/>
  <rect id="Rectangle_2168" data-name="Rectangle 2168" width="20" height="3" rx="1.5" transform="translate(7.5 223.5) rotate(90)" fill="#917339"/>
  <rect id="Rectangle_2158" data-name="Rectangle 2158" width="20" height="3" rx="1.5" transform="translate(7.5 191.5) rotate(90)" fill="#917339"/>
  <rect id="Rectangle_2167" data-name="Rectangle 2167" width="20" height="3" rx="1.5" transform="translate(7.5 256.5) rotate(90)" fill="#917339"/>
  <rect id="Rectangle_2159" data-name="Rectangle 2159" width="20" height="3" rx="1.5" transform="translate(95.5 24.5) rotate(90)" fill="#917339"/>
  <rect id="Rectangle_2160" data-name="Rectangle 2160" width="20" height="3" rx="1.5" transform="translate(95.5 91.5) rotate(90)" fill="#917339"/>
  <rect id="Rectangle_2161" data-name="Rectangle 2161" width="20" height="3" rx="1.5" transform="translate(95.5 57.5) rotate(90)" fill="#917339"/>
  <rect id="Rectangle_2162" data-name="Rectangle 2162" width="20" height="3" rx="1.5" transform="translate(95.5 124.5) rotate(90)" fill="#917339"/>
  <rect id="Rectangle_2163" data-name="Rectangle 2163" width="20" height="3" rx="1.5" transform="translate(95.5 158.5) rotate(90)" fill="#917339"/>
  <rect id="Rectangle_2166" data-name="Rectangle 2166" width="20" height="3" rx="1.5" transform="translate(95.5 224.5) rotate(90)" fill="#917339"/>
  <rect id="Rectangle_2164" data-name="Rectangle 2164" width="20" height="3" rx="1.5" transform="translate(95.5 191.5) rotate(90)" fill="#917339"/>
  <rect id="Rectangle_2165" data-name="Rectangle 2165" width="20" height="3" rx="1.5" transform="translate(95.5 257.5) rotate(90)" fill="#917339"/>
  <path id="Rectangle_5-9" data-name="Rectangle 5" d="M0,0H0A10,10,0,0,1,10,10V20A10,10,0,0,1,0,30H0a0,0,0,0,1,0,0V0A0,0,0,0,1,0,0Z" transform="translate(35 10) rotate(-90)" fill="#dfac48"/>
  <path id="Rectangle_4-9" data-name="Rectangle 4" d="M10,0h0a0,0,0,0,1,0,0V30a0,0,0,0,1,0,0h0A10,10,0,0,1,0,20V10A10,10,0,0,1,10,0Z" transform="translate(35 302) rotate(-90)" fill="#dfac48"/>
  <rect id="Rectangle_2170" data-name="Rectangle 2170" width="20" height="3" rx="1.5" transform="translate(60 8) rotate(-180)" fill="#917339"/>
  <rect id="Rectangle_2172" data-name="Rectangle 2172" width="20" height="3" rx="1.5" transform="translate(60 298) rotate(-180)" fill="#917339"/>
</svg>
