<svg id="vertical_rectangle_yellow_14" xmlns="http://www.w3.org/2000/svg" width="100" height="200" viewBox="0 0 100 200">
  <rect id="Rectangle_1" data-name="Rectangle 1" width="180" height="80" rx="10" transform="translate(90 10) rotate(90)" fill="#fcd484"/>
  <path id="Rectangle_5" data-name="Rectangle 5" d="M0,0H0A10,10,0,0,1,10,10V20A10,10,0,0,1,0,30H0a0,0,0,0,1,0,0V0A0,0,0,0,1,0,0Z" transform="translate(10 82) rotate(180)" fill="#dfac48"/>
  <path id="Rectangle_4" data-name="Rectangle 4" d="M10,0h0a0,0,0,0,1,0,0V30a0,0,0,0,1,0,0h0A10,10,0,0,1,0,20V10A10,10,0,0,1,10,0Z" transform="translate(100 82) rotate(180)" fill="#dfac48"/>
  <path id="Rectangle_5-2" data-name="Rectangle 5" d="M0,0H0A10,10,0,0,1,10,10V20A10,10,0,0,1,0,30H0a0,0,0,0,1,0,0V0A0,0,0,0,1,0,0Z" transform="translate(10 116) rotate(180)" fill="#dfac48"/>
  <path id="Rectangle_4-2" data-name="Rectangle 4" d="M10,0h0a0,0,0,0,1,0,0V30a0,0,0,0,1,0,0h0A10,10,0,0,1,0,20V10A10,10,0,0,1,10,0Z" transform="translate(100 116) rotate(180)" fill="#dfac48"/>
  <path id="Rectangle_5-3" data-name="Rectangle 5" d="M0,0H0A10,10,0,0,1,10,10V20A10,10,0,0,1,0,30H0a0,0,0,0,1,0,0V0A0,0,0,0,1,0,0Z" transform="translate(10 149) rotate(180)" fill="#dfac48"/>
  <path id="Rectangle_4-3" data-name="Rectangle 4" d="M10,0h0a0,0,0,0,1,0,0V30a0,0,0,0,1,0,0h0A10,10,0,0,1,0,20V10A10,10,0,0,1,10,0Z" transform="translate(100 149) rotate(180)" fill="#dfac48"/>
  <path id="Rectangle_5-4" data-name="Rectangle 5" d="M0,0H0A10,10,0,0,1,10,10V20A10,10,0,0,1,0,30H0a0,0,0,0,1,0,0V0A0,0,0,0,1,0,0Z" transform="translate(10 182) rotate(180)" fill="#dfac48"/>
  <path id="Rectangle_4-4" data-name="Rectangle 4" d="M10,0h0a0,0,0,0,1,0,0V30a0,0,0,0,1,0,0h0A10,10,0,0,1,0,20V10A10,10,0,0,1,10,0Z" transform="translate(100 182) rotate(180)" fill="#dfac48"/>
  <path id="Rectangle_5-5" data-name="Rectangle 5" d="M0,0H0A10,10,0,0,1,10,10V20A10,10,0,0,1,0,30H0a0,0,0,0,1,0,0V0A0,0,0,0,1,0,0Z" transform="translate(10 49) rotate(180)" fill="#dfac48"/>
  <path id="Rectangle_4-5" data-name="Rectangle 4" d="M10,0h0a0,0,0,0,1,0,0V30a0,0,0,0,1,0,0h0A10,10,0,0,1,0,20V10A10,10,0,0,1,10,0Z" transform="translate(100 49) rotate(180)" fill="#dfac48"/>
  <path id="Rectangle_5-6" data-name="Rectangle 5" d="M0,0H0A10,10,0,0,1,10,10V20A10,10,0,0,1,0,30H0a0,0,0,0,1,0,0V0A0,0,0,0,1,0,0Z" transform="translate(18 10) rotate(-90)" fill="#dfac48"/>
  <path id="Rectangle_4-6" data-name="Rectangle 4" d="M10,0h0a0,0,0,0,1,0,0V30a0,0,0,0,1,0,0h0A10,10,0,0,1,0,20V10A10,10,0,0,1,10,0Z" transform="translate(18 200) rotate(-90)" fill="#dfac48"/>
  <path id="Rectangle_5-7" data-name="Rectangle 5" d="M0,0H0A10,10,0,0,1,10,10V20A10,10,0,0,1,0,30H0a0,0,0,0,1,0,0V0A0,0,0,0,1,0,0Z" transform="translate(51 10) rotate(-90)" fill="#dfac48"/>
  <path id="Rectangle_4-7" data-name="Rectangle 4" d="M10,0h0a0,0,0,0,1,0,0V30a0,0,0,0,1,0,0h0A10,10,0,0,1,0,20V10A10,10,0,0,1,10,0Z" transform="translate(51 200) rotate(-90)" fill="#dfac48"/>
  <rect id="Rectangle_2114" data-name="Rectangle 2114" width="20" height="3" rx="1.5" transform="translate(75 196) rotate(-180)" fill="#917339"/>
  <rect id="Rectangle_2130" data-name="Rectangle 2130" width="20" height="3" rx="1.5" transform="translate(42 196) rotate(-180)" fill="#917339"/>
  <rect id="Rectangle_2115" data-name="Rectangle 2115" width="20" height="3" rx="1.5" transform="translate(76 7) rotate(-180)" fill="#917339"/>
  <rect id="Rectangle_2131" data-name="Rectangle 2131" width="20" height="3" rx="1.5" transform="translate(43 7) rotate(-180)" fill="#917339"/>
  <rect id="Rectangle_2118" data-name="Rectangle 2118" width="20" height="3" rx="1.5" transform="translate(7.5 24.5) rotate(90)" fill="#917339"/>
  <rect id="Rectangle_2119" data-name="Rectangle 2119" width="20" height="3" rx="1.5" transform="translate(7.5 91.5) rotate(90)" fill="#917339"/>
  <rect id="Rectangle_2122" data-name="Rectangle 2122" width="20" height="3" rx="1.5" transform="translate(7.5 57.5) rotate(90)" fill="#917339"/>
  <rect id="Rectangle_2123" data-name="Rectangle 2123" width="20" height="3" rx="1.5" transform="translate(7.5 124.5) rotate(90)" fill="#917339"/>
  <rect id="Rectangle_2124" data-name="Rectangle 2124" width="20" height="3" rx="1.5" transform="translate(7.5 156.5) rotate(90)" fill="#917339"/>
  <rect id="Rectangle_2132" data-name="Rectangle 2132" width="20" height="3" rx="1.5" transform="translate(95.5 24.5) rotate(90)" fill="#917339"/>
  <rect id="Rectangle_2133" data-name="Rectangle 2133" width="20" height="3" rx="1.5" transform="translate(95.5 91.5) rotate(90)" fill="#917339"/>
  <rect id="Rectangle_2134" data-name="Rectangle 2134" width="20" height="3" rx="1.5" transform="translate(95.5 57.5) rotate(90)" fill="#917339"/>
  <rect id="Rectangle_2135" data-name="Rectangle 2135" width="20" height="3" rx="1.5" transform="translate(95.5 124.5) rotate(90)" fill="#917339"/>
  <rect id="Rectangle_2136" data-name="Rectangle 2136" width="20" height="3" rx="1.5" transform="translate(95.5 156.5) rotate(90)" fill="#917339"/>
</svg>
