<svg id="vertical_rectangle_yellow_12" xmlns="http://www.w3.org/2000/svg" width="100" height="170" viewBox="0 0 100 170">
  <rect id="Rectangle_1" data-name="Rectangle 1" width="150" height="80" rx="10" transform="translate(90 10) rotate(90)" fill="#fcd484"/>
  <path id="Rectangle_5" data-name="Rectangle 5" d="M0,0H0A10,10,0,0,1,10,10V20A10,10,0,0,1,0,30H0a0,0,0,0,1,0,0V0A0,0,0,0,1,0,0Z" transform="translate(10 83) rotate(180)" fill="#dfac48"/>
  <path id="Rectangle_4" data-name="Rectangle 4" d="M10,0h0a0,0,0,0,1,0,0V30a0,0,0,0,1,0,0h0A10,10,0,0,1,0,20V10A10,10,0,0,1,10,0Z" transform="translate(100 83) rotate(180)" fill="#dfac48"/>
  <path id="Rectangle_5-2" data-name="Rectangle 5" d="M0,0H0A10,10,0,0,1,10,10V20A10,10,0,0,1,0,30H0a0,0,0,0,1,0,0V0A0,0,0,0,1,0,0Z" transform="translate(10 117) rotate(180)" fill="#dfac48"/>
  <path id="Rectangle_4-2" data-name="Rectangle 4" d="M10,0h0a0,0,0,0,1,0,0V30a0,0,0,0,1,0,0h0A10,10,0,0,1,0,20V10A10,10,0,0,1,10,0Z" transform="translate(100 117) rotate(180)" fill="#dfac48"/>
  <path id="Rectangle_5-3" data-name="Rectangle 5" d="M0,0H0A10,10,0,0,1,10,10V20A10,10,0,0,1,0,30H0a0,0,0,0,1,0,0V0A0,0,0,0,1,0,0Z" transform="translate(10 150) rotate(180)" fill="#dfac48"/>
  <path id="Rectangle_4-3" data-name="Rectangle 4" d="M10,0h0a0,0,0,0,1,0,0V30a0,0,0,0,1,0,0h0A10,10,0,0,1,0,20V10A10,10,0,0,1,10,0Z" transform="translate(100 150) rotate(180)" fill="#dfac48"/>
  <path id="Rectangle_5-4" data-name="Rectangle 5" d="M0,0H0A10,10,0,0,1,10,10V20A10,10,0,0,1,0,30H0a0,0,0,0,1,0,0V0A0,0,0,0,1,0,0Z" transform="translate(10 50) rotate(180)" fill="#dfac48"/>
  <path id="Rectangle_4-4" data-name="Rectangle 4" d="M10,0h0a0,0,0,0,1,0,0V30a0,0,0,0,1,0,0h0A10,10,0,0,1,0,20V10A10,10,0,0,1,10,0Z" transform="translate(100 50) rotate(180)" fill="#dfac48"/>
  <path id="Rectangle_5-5" data-name="Rectangle 5" d="M0,0H0A10,10,0,0,1,10,10V20A10,10,0,0,1,0,30H0a0,0,0,0,1,0,0V0A0,0,0,0,1,0,0Z" transform="translate(19 10) rotate(-90)" fill="#dfac48"/>
  <path id="Rectangle_4-5" data-name="Rectangle 4" d="M10,0h0a0,0,0,0,1,0,0V30a0,0,0,0,1,0,0h0A10,10,0,0,1,0,20V10A10,10,0,0,1,10,0Z" transform="translate(19 170) rotate(-90)" fill="#dfac48"/>
  <path id="Rectangle_5-6" data-name="Rectangle 5" d="M0,0H0A10,10,0,0,1,10,10V20A10,10,0,0,1,0,30H0a0,0,0,0,1,0,0V0A0,0,0,0,1,0,0Z" transform="translate(51 10) rotate(-90)" fill="#dfac48"/>
  <path id="Rectangle_4-6" data-name="Rectangle 4" d="M10,0h0a0,0,0,0,1,0,0V30a0,0,0,0,1,0,0h0A10,10,0,0,1,0,20V10A10,10,0,0,1,10,0Z" transform="translate(51 170) rotate(-90)" fill="#dfac48"/>
  <rect id="Rectangle_2102" data-name="Rectangle 2102" width="20" height="3" rx="1.5" transform="translate(95.5 25.5) rotate(90)" fill="#917339"/>
  <rect id="Rectangle_2110" data-name="Rectangle 2110" width="20" height="3" rx="1.5" transform="translate(75 166) rotate(-180)" fill="#917339"/>
  <rect id="Rectangle_2128" data-name="Rectangle 2128" width="20" height="3" rx="1.5" transform="translate(44 166) rotate(-180)" fill="#917339"/>
  <rect id="Rectangle_2108" data-name="Rectangle 2108" width="20" height="3" rx="1.5" transform="translate(95.5 92.5) rotate(90)" fill="#917339"/>
  <rect id="Rectangle_2103" data-name="Rectangle 2103" width="20" height="3" rx="1.5" transform="translate(7.5 25.5) rotate(90)" fill="#917339"/>
  <rect id="Rectangle_2111" data-name="Rectangle 2111" width="20" height="3" rx="1.5" transform="translate(76 7) rotate(-180)" fill="#917339"/>
  <rect id="Rectangle_2129" data-name="Rectangle 2129" width="20" height="3" rx="1.5" transform="translate(45 7) rotate(-180)" fill="#917339"/>
  <rect id="Rectangle_2109" data-name="Rectangle 2109" width="20" height="3" rx="1.5" transform="translate(7.5 92.5) rotate(90)" fill="#917339"/>
  <rect id="Rectangle_2104" data-name="Rectangle 2104" width="20" height="3" rx="1.5" transform="translate(95.5 58.5) rotate(90)" fill="#917339"/>
  <rect id="Rectangle_2106" data-name="Rectangle 2106" width="20" height="3" rx="1.5" transform="translate(95.5 125.5) rotate(90)" fill="#917339"/>
  <rect id="Rectangle_2105" data-name="Rectangle 2105" width="20" height="3" rx="1.5" transform="translate(7.5 58.5) rotate(90)" fill="#917339"/>
  <rect id="Rectangle_2107" data-name="Rectangle 2107" width="20" height="3" rx="1.5" transform="translate(7.5 125.5) rotate(90)" fill="#917339"/>
</svg>
