<svg id="vertical_rectangle_yellow_6" xmlns="http://www.w3.org/2000/svg" width="100" height="120" viewBox="0 0 100 120">
  <rect id="Rectangle_1" data-name="Rectangle 1" width="100" height="80" rx="10" transform="translate(90 10) rotate(90)" fill="#fcd484"/>
  <path id="Rectangle_5" data-name="Rectangle 5" d="M0,0H0A10,10,0,0,1,10,10V20A10,10,0,0,1,0,30H0a0,0,0,0,1,0,0V0A0,0,0,0,1,0,0Z" transform="translate(10 96) rotate(180)" fill="#dfac48"/>
  <path id="Rectangle_4" data-name="Rectangle 4" d="M10,0h0a0,0,0,0,1,0,0V30a0,0,0,0,1,0,0h0A10,10,0,0,1,0,20V10A10,10,0,0,1,10,0Z" transform="translate(100 96) rotate(180)" fill="#dfac48"/>
  <path id="Rectangle_5-2" data-name="Rectangle 5" d="M0,0H0A10,10,0,0,1,10,10V20A10,10,0,0,1,0,30H0a0,0,0,0,1,0,0V0A0,0,0,0,1,0,0Z" transform="translate(35 10) rotate(-90)" fill="#dfac48"/>
  <path id="Rectangle_4-2" data-name="Rectangle 4" d="M10,0h0a0,0,0,0,1,0,0V30a0,0,0,0,1,0,0h0A10,10,0,0,1,0,20V10A10,10,0,0,1,10,0Z" transform="translate(35 120) rotate(-90)" fill="#dfac48"/>
  <path id="Rectangle_5-3" data-name="Rectangle 5" d="M0,0H0A10,10,0,0,1,10,10V20A10,10,0,0,1,0,30H0a0,0,0,0,1,0,0V0A0,0,0,0,1,0,0Z" transform="translate(10 56) rotate(180)" fill="#dfac48"/>
  <path id="Rectangle_4-3" data-name="Rectangle 4" d="M10,0h0a0,0,0,0,1,0,0V30a0,0,0,0,1,0,0h0A10,10,0,0,1,0,20V10A10,10,0,0,1,10,0Z" transform="translate(100 56) rotate(180)" fill="#dfac48"/>
  <rect id="Rectangle_1793" data-name="Rectangle 1793" width="20" height="3" rx="1.5" transform="translate(95.5 31.5) rotate(90)" fill="#917339"/>
  <rect id="Rectangle_2098" data-name="Rectangle 2098" width="20" height="3" rx="1.5" transform="translate(40 4)" fill="#917339"/>
  <rect id="Rectangle_1797" data-name="Rectangle 1797" width="20" height="3" rx="1.5" transform="translate(7.5 31.5) rotate(90)" fill="#917339"/>
  <rect id="Rectangle_2099" data-name="Rectangle 2099" width="20" height="3" rx="1.5" transform="translate(40 113)" fill="#917339"/>
  <rect id="Rectangle_1795" data-name="Rectangle 1795" width="20" height="3" rx="1.5" transform="translate(95.5 71.5) rotate(90)" fill="#917339"/>
  <rect id="Rectangle_1796" data-name="Rectangle 1796" width="20" height="3" rx="1.5" transform="translate(7.5 71.5) rotate(90)" fill="#917339"/>
</svg>
