<svg id="vertical_rectangle_blue_16" xmlns="http://www.w3.org/2000/svg" width="100" height="236" viewBox="0 0 100 236">
  <g id="_16ghe-xanh-hcn-dung" data-name="16ghe-xanh-hcn-dung" transform="translate(1425 -116) rotate(90)">
    <rect id="Rectangle_1" data-name="Rectangle 1" width="216" height="80" rx="10" transform="translate(126 1335)" fill="#00bff3"/>
    <g id="Group_1241" data-name="Group 1241" transform="translate(-23 1169)">
      <path id="Rectangle_5" data-name="Rectangle 5" d="M0,0H0A10,10,0,0,1,10,10V20A10,10,0,0,1,0,30H0a0,0,0,0,1,0,0V0A0,0,0,0,1,0,0Z" transform="translate(221 246) rotate(90)" fill="#0c90b4"/>
      <path id="Rectangle_4" data-name="Rectangle 4" d="M10,0h0a0,0,0,0,1,0,0V30a0,0,0,0,1,0,0h0A10,10,0,0,1,0,20V10A10,10,0,0,1,10,0Z" transform="translate(221 156) rotate(90)" fill="#0c90b4"/>
    </g>
    <g id="Group_1243" data-name="Group 1243" transform="translate(11 1169)">
      <path id="Rectangle_5-2" data-name="Rectangle 5" d="M0,0H0A10,10,0,0,1,10,10V20A10,10,0,0,1,0,30H0a0,0,0,0,1,0,0V0A0,0,0,0,1,0,0Z" transform="translate(221 246) rotate(90)" fill="#0c90b4"/>
      <path id="Rectangle_4-2" data-name="Rectangle 4" d="M10,0h0a0,0,0,0,1,0,0V30a0,0,0,0,1,0,0h0A10,10,0,0,1,0,20V10A10,10,0,0,1,10,0Z" transform="translate(221 156) rotate(90)" fill="#0c90b4"/>
    </g>
    <g id="Group_1244" data-name="Group 1244" transform="translate(44 1169)">
      <path id="Rectangle_5-3" data-name="Rectangle 5" d="M0,0H0A10,10,0,0,1,10,10V20A10,10,0,0,1,0,30H0a0,0,0,0,1,0,0V0A0,0,0,0,1,0,0Z" transform="translate(221 246) rotate(90)" fill="#0c90b4"/>
      <path id="Rectangle_4-3" data-name="Rectangle 4" d="M10,0h0a0,0,0,0,1,0,0V30a0,0,0,0,1,0,0h0A10,10,0,0,1,0,20V10A10,10,0,0,1,10,0Z" transform="translate(221 156) rotate(90)" fill="#0c90b4"/>
    </g>
    <g id="Group_1245" data-name="Group 1245" transform="translate(78 1169)">
      <path id="Rectangle_5-4" data-name="Rectangle 5" d="M0,0H0A10,10,0,0,1,10,10V20A10,10,0,0,1,0,30H0a0,0,0,0,1,0,0V0A0,0,0,0,1,0,0Z" transform="translate(221 246) rotate(90)" fill="#0c90b4"/>
      <path id="Rectangle_4-4" data-name="Rectangle 4" d="M10,0h0a0,0,0,0,1,0,0V30a0,0,0,0,1,0,0h0A10,10,0,0,1,0,20V10A10,10,0,0,1,10,0Z" transform="translate(221 156) rotate(90)" fill="#0c90b4"/>
    </g>
    <g id="Group_1242" data-name="Group 1242" transform="translate(-56 1169)">
      <path id="Rectangle_5-5" data-name="Rectangle 5" d="M0,0H0A10,10,0,0,1,10,10V20A10,10,0,0,1,0,30H0a0,0,0,0,1,0,0V0A0,0,0,0,1,0,0Z" transform="translate(221 246) rotate(90)" fill="#0c90b4"/>
      <path id="Rectangle_4-5" data-name="Rectangle 4" d="M10,0h0a0,0,0,0,1,0,0V30a0,0,0,0,1,0,0h0A10,10,0,0,1,0,20V10A10,10,0,0,1,10,0Z" transform="translate(221 156) rotate(90)" fill="#0c90b4"/>
    </g>
    <g id="Group_1250" data-name="Group 1250" transform="translate(111 1169)">
      <path id="Rectangle_5-6" data-name="Rectangle 5" d="M0,0H0A10,10,0,0,1,10,10V20A10,10,0,0,1,0,30H0a0,0,0,0,1,0,0V0A0,0,0,0,1,0,0Z" transform="translate(221 246) rotate(90)" fill="#0c90b4"/>
      <path id="Rectangle_4-6" data-name="Rectangle 4" d="M10,0h0a0,0,0,0,1,0,0V30a0,0,0,0,1,0,0h0A10,10,0,0,1,0,20V10A10,10,0,0,1,10,0Z" transform="translate(221 156) rotate(90)" fill="#0c90b4"/>
    </g>
    <rect id="Rectangle_2137" data-name="Rectangle 2137" width="20" height="3" rx="1.5" transform="translate(140.5 1417.5)" fill="#00bff3"/>
    <rect id="Rectangle_2138" data-name="Rectangle 2138" width="20" height="3" rx="1.5" transform="translate(207.5 1417.5)" fill="#00bff3"/>
    <rect id="Rectangle_2139" data-name="Rectangle 2139" width="20" height="3" rx="1.5" transform="translate(173.5 1417.5)" fill="#00bff3"/>
    <rect id="Rectangle_2140" data-name="Rectangle 2140" width="20" height="3" rx="1.5" transform="translate(240.5 1417.5)" fill="#00bff3"/>
    <rect id="Rectangle_2141" data-name="Rectangle 2141" width="20" height="3" rx="1.5" transform="translate(274.5 1417.5)" fill="#00bff3"/>
    <rect id="Rectangle_2148" data-name="Rectangle 2148" width="20" height="3" rx="1.5" transform="translate(307.5 1417.5)" fill="#00bff3"/>
    <rect id="Rectangle_2142" data-name="Rectangle 2142" width="20" height="3" rx="1.5" transform="translate(140.5 1329.5)" fill="#00bff3"/>
    <rect id="Rectangle_2143" data-name="Rectangle 2143" width="20" height="3" rx="1.5" transform="translate(207.5 1329.5)" fill="#00bff3"/>
    <rect id="Rectangle_2144" data-name="Rectangle 2144" width="20" height="3" rx="1.5" transform="translate(173.5 1329.5)" fill="#00bff3"/>
    <rect id="Rectangle_2145" data-name="Rectangle 2145" width="20" height="3" rx="1.5" transform="translate(240.5 1329.5)" fill="#00bff3"/>
    <rect id="Rectangle_2146" data-name="Rectangle 2146" width="20" height="3" rx="1.5" transform="translate(274.5 1329.5)" fill="#00bff3"/>
    <rect id="Rectangle_2147" data-name="Rectangle 2147" width="20" height="3" rx="1.5" transform="translate(307.5 1329.5)" fill="#00bff3"/>
    <g id="Group_1380" data-name="Group 1380" transform="translate(372 1185) rotate(90)">
      <path id="Rectangle_5-7" data-name="Rectangle 5" d="M0,0H0A10,10,0,0,1,10,10V20A10,10,0,0,1,0,30H0a0,0,0,0,1,0,0V0A0,0,0,0,1,0,0Z" transform="translate(221 246) rotate(90)" fill="#0c90b4"/>
      <path id="Rectangle_4-7" data-name="Rectangle 4" d="M10,0h0a0,0,0,0,1,0,0V30a0,0,0,0,1,0,0h0A10,10,0,0,1,0,20V10A10,10,0,0,1,10,0Z" transform="translate(221 20) rotate(90)" fill="#0c90b4"/>
    </g>
    <g id="Group_1381" data-name="Group 1381" transform="translate(372 1153) rotate(90)">
      <path id="Rectangle_5-8" data-name="Rectangle 5" d="M0,0H0A10,10,0,0,1,10,10V20A10,10,0,0,1,0,30H0a0,0,0,0,1,0,0V0A0,0,0,0,1,0,0Z" transform="translate(221 246) rotate(90)" fill="#0c90b4"/>
      <path id="Rectangle_4-8" data-name="Rectangle 4" d="M10,0h0a0,0,0,0,1,0,0V30a0,0,0,0,1,0,0h0A10,10,0,0,1,0,20V10A10,10,0,0,1,10,0Z" transform="translate(221 20) rotate(90)" fill="#0c90b4"/>
    </g>
    <rect id="Rectangle_2149" data-name="Rectangle 2149" width="20" height="3" rx="1.5" transform="translate(347 1350) rotate(90)" fill="#00bff3"/>
    <rect id="Rectangle_2150" data-name="Rectangle 2150" width="20" height="3" rx="1.5" transform="translate(347 1382) rotate(90)" fill="#00bff3"/>
    <rect id="Rectangle_2151" data-name="Rectangle 2151" width="20" height="3" rx="1.5" transform="translate(123 1349) rotate(90)" fill="#00bff3"/>
    <rect id="Rectangle_2152" data-name="Rectangle 2152" width="20" height="3" rx="1.5" transform="translate(123 1381) rotate(90)" fill="#00bff3"/>
  </g>
</svg>
