<svg id="vertical-rectangle_gray_2" xmlns="http://www.w3.org/2000/svg" width="100" height="100" viewBox="0 0 100 100">
  <g id="_2ghe-xam-hcn-dung" data-name="2ghe-xam-hcn-dung" transform="translate(765 -136) rotate(90)">
    <rect id="Rectangle_1" data-name="Rectangle 1" width="100" height="80" rx="10" transform="translate(136 675)" fill="#cbcbce"/>
    <path id="Rectangle_5" data-name="Rectangle 5" d="M0,0H0A10,10,0,0,1,10,10V20A10,10,0,0,1,0,30H0a0,0,0,0,1,0,0V0A0,0,0,0,1,0,0Z" transform="translate(201 755) rotate(90)" fill="#a6a6aa"/>
    <path id="Rectangle_4" data-name="Rectangle 4" d="M10,0h0a0,0,0,0,1,0,0V30a0,0,0,0,1,0,0h0A10,10,0,0,1,0,20V10A10,10,0,0,1,10,0Z" transform="translate(201 665) rotate(90)" fill="#a6a6aa"/>
    <rect id="Rectangle_2112" data-name="Rectangle 2112" width="20" height="3" rx="1.5" transform="translate(176.5 669.5)" fill="#898989"/>
    <rect id="Rectangle_2113" data-name="Rectangle 2113" width="20" height="3" rx="1.5" transform="translate(176.5 757.5)" fill="#898989"/>
  </g>
</svg>
