<svg id="vertical_rectangle_blue_12" xmlns="http://www.w3.org/2000/svg" width="100" height="170" viewBox="0 0 100 170">
  <g id="_12ghe-xanh-hcn-dung" data-name="12ghe-xanh-hcn-dung" transform="translate(1294 -835) rotate(90)">
    <rect id="Rectangle_1" data-name="Rectangle 1" width="150" height="80" rx="10" transform="translate(845 1204)" fill="#00bff3"/>
    <g id="Group_1241" data-name="Group 1241" transform="translate(697 1038)">
      <path id="Rectangle_5" data-name="Rectangle 5" d="M0,0H0A10,10,0,0,1,10,10V20A10,10,0,0,1,0,30H0a0,0,0,0,1,0,0V0A0,0,0,0,1,0,0Z" transform="translate(221 246) rotate(90)" fill="#0c90b4"/>
      <path id="Rectangle_4" data-name="Rectangle 4" d="M10,0h0a0,0,0,0,1,0,0V30a0,0,0,0,1,0,0h0A10,10,0,0,1,0,20V10A10,10,0,0,1,10,0Z" transform="translate(221 156) rotate(90)" fill="#0c90b4"/>
    </g>
    <g id="Group_1243" data-name="Group 1243" transform="translate(731 1038)">
      <path id="Rectangle_5-2" data-name="Rectangle 5" d="M0,0H0A10,10,0,0,1,10,10V20A10,10,0,0,1,0,30H0a0,0,0,0,1,0,0V0A0,0,0,0,1,0,0Z" transform="translate(221 246) rotate(90)" fill="#0c90b4"/>
      <path id="Rectangle_4-2" data-name="Rectangle 4" d="M10,0h0a0,0,0,0,1,0,0V30a0,0,0,0,1,0,0h0A10,10,0,0,1,0,20V10A10,10,0,0,1,10,0Z" transform="translate(221 156) rotate(90)" fill="#0c90b4"/>
    </g>
    <g id="Group_1244" data-name="Group 1244" transform="translate(764 1038)">
      <path id="Rectangle_5-3" data-name="Rectangle 5" d="M0,0H0A10,10,0,0,1,10,10V20A10,10,0,0,1,0,30H0a0,0,0,0,1,0,0V0A0,0,0,0,1,0,0Z" transform="translate(221 246) rotate(90)" fill="#0c90b4"/>
      <path id="Rectangle_4-3" data-name="Rectangle 4" d="M10,0h0a0,0,0,0,1,0,0V30a0,0,0,0,1,0,0h0A10,10,0,0,1,0,20V10A10,10,0,0,1,10,0Z" transform="translate(221 156) rotate(90)" fill="#0c90b4"/>
    </g>
    <g id="Group_1242" data-name="Group 1242" transform="translate(664 1038)">
      <path id="Rectangle_5-4" data-name="Rectangle 5" d="M0,0H0A10,10,0,0,1,10,10V20A10,10,0,0,1,0,30H0a0,0,0,0,1,0,0V0A0,0,0,0,1,0,0Z" transform="translate(221 246) rotate(90)" fill="#0c90b4"/>
      <path id="Rectangle_4-4" data-name="Rectangle 4" d="M10,0h0a0,0,0,0,1,0,0V30a0,0,0,0,1,0,0h0A10,10,0,0,1,0,20V10A10,10,0,0,1,10,0Z" transform="translate(221 156) rotate(90)" fill="#0c90b4"/>
    </g>
    <g id="Group_1375" data-name="Group 1375" transform="translate(1091 1054) rotate(90)">
      <path id="Rectangle_5-5" data-name="Rectangle 5" d="M0,0H0A10,10,0,0,1,10,10V20A10,10,0,0,1,0,30H0a0,0,0,0,1,0,0V0A0,0,0,0,1,0,0Z" transform="translate(221 246) rotate(90)" fill="#0c90b4"/>
      <path id="Rectangle_4-5" data-name="Rectangle 4" d="M10,0h0a0,0,0,0,1,0,0V30a0,0,0,0,1,0,0h0A10,10,0,0,1,0,20V10A10,10,0,0,1,10,0Z" transform="translate(221 86) rotate(90)" fill="#0c90b4"/>
    </g>
    <g id="Group_1378" data-name="Group 1378" transform="translate(1091 1022) rotate(90)">
      <path id="Rectangle_5-6" data-name="Rectangle 5" d="M0,0H0A10,10,0,0,1,10,10V20A10,10,0,0,1,0,30H0a0,0,0,0,1,0,0V0A0,0,0,0,1,0,0Z" transform="translate(221 246) rotate(90)" fill="#0c90b4"/>
      <path id="Rectangle_4-6" data-name="Rectangle 4" d="M10,0h0a0,0,0,0,1,0,0V30a0,0,0,0,1,0,0h0A10,10,0,0,1,0,20V10A10,10,0,0,1,10,0Z" transform="translate(221 86) rotate(90)" fill="#0c90b4"/>
    </g>
    <rect id="Rectangle_2102" data-name="Rectangle 2102" width="20" height="3" rx="1.5" transform="translate(860.5 1198.5)" fill="#00bff3"/>
    <rect id="Rectangle_2110" data-name="Rectangle 2110" width="20" height="3" rx="1.5" transform="translate(1001 1219) rotate(90)" fill="#00bff3"/>
    <rect id="Rectangle_2128" data-name="Rectangle 2128" width="20" height="3" rx="1.5" transform="translate(1001 1250) rotate(90)" fill="#00bff3"/>
    <rect id="Rectangle_2108" data-name="Rectangle 2108" width="20" height="3" rx="1.5" transform="translate(927.5 1198.5)" fill="#00bff3"/>
    <rect id="Rectangle_2103" data-name="Rectangle 2103" width="20" height="3" rx="1.5" transform="translate(860.5 1286.5)" fill="#00bff3"/>
    <rect id="Rectangle_2111" data-name="Rectangle 2111" width="20" height="3" rx="1.5" transform="translate(842 1218) rotate(90)" fill="#00bff3"/>
    <rect id="Rectangle_2129" data-name="Rectangle 2129" width="20" height="3" rx="1.5" transform="translate(842 1249) rotate(90)" fill="#00bff3"/>
    <rect id="Rectangle_2109" data-name="Rectangle 2109" width="20" height="3" rx="1.5" transform="translate(927.5 1286.5)" fill="#00bff3"/>
    <rect id="Rectangle_2104" data-name="Rectangle 2104" width="20" height="3" rx="1.5" transform="translate(893.5 1198.5)" fill="#00bff3"/>
    <rect id="Rectangle_2106" data-name="Rectangle 2106" width="20" height="3" rx="1.5" transform="translate(960.5 1198.5)" fill="#00bff3"/>
    <rect id="Rectangle_2105" data-name="Rectangle 2105" width="20" height="3" rx="1.5" transform="translate(893.5 1286.5)" fill="#00bff3"/>
    <rect id="Rectangle_2107" data-name="Rectangle 2107" width="20" height="3" rx="1.5" transform="translate(960.5 1286.5)" fill="#00bff3"/>
  </g>
</svg>
