<svg id="vertical_rectangle_blue_20" xmlns="http://www.w3.org/2000/svg" width="100" height="302" viewBox="0 0 100 302">
  <g id="_20ghe-xanh-hcn-dung" data-name="20ghe-xanh-hcn-dung" transform="translate(1425 -711) rotate(90)">
    <rect id="Rectangle_1" data-name="Rectangle 1" width="282" height="80" rx="10" transform="translate(721 1335)" fill="#00bff3"/>
    <g id="Group_1241" data-name="Group 1241" transform="translate(572 1169)">
      <path id="Rectangle_5" data-name="Rectangle 5" d="M0,0H0A10,10,0,0,1,10,10V20A10,10,0,0,1,0,30H0a0,0,0,0,1,0,0V0A0,0,0,0,1,0,0Z" transform="translate(221 246) rotate(90)" fill="#0c90b4"/>
      <path id="Rectangle_4" data-name="Rectangle 4" d="M10,0h0a0,0,0,0,1,0,0V30a0,0,0,0,1,0,0h0A10,10,0,0,1,0,20V10A10,10,0,0,1,10,0Z" transform="translate(221 156) rotate(90)" fill="#0c90b4"/>
    </g>
    <g id="Group_1249" data-name="Group 1249" transform="translate(739 1169)">
      <path id="Rectangle_5-2" data-name="Rectangle 5" d="M0,0H0A10,10,0,0,1,10,10V20A10,10,0,0,1,0,30H0a0,0,0,0,1,0,0V0A0,0,0,0,1,0,0Z" transform="translate(221 246) rotate(90)" fill="#0c90b4"/>
      <path id="Rectangle_4-2" data-name="Rectangle 4" d="M10,0h0a0,0,0,0,1,0,0V30a0,0,0,0,1,0,0h0A10,10,0,0,1,0,20V10A10,10,0,0,1,10,0Z" transform="translate(221 156) rotate(90)" fill="#0c90b4"/>
    </g>
    <g id="Group_1243" data-name="Group 1243" transform="translate(606 1169)">
      <path id="Rectangle_5-3" data-name="Rectangle 5" d="M0,0H0A10,10,0,0,1,10,10V20A10,10,0,0,1,0,30H0a0,0,0,0,1,0,0V0A0,0,0,0,1,0,0Z" transform="translate(221 246) rotate(90)" fill="#0c90b4"/>
      <path id="Rectangle_4-3" data-name="Rectangle 4" d="M10,0h0a0,0,0,0,1,0,0V30a0,0,0,0,1,0,0h0A10,10,0,0,1,0,20V10A10,10,0,0,1,10,0Z" transform="translate(221 156) rotate(90)" fill="#0c90b4"/>
    </g>
    <g id="Group_1248" data-name="Group 1248" transform="translate(772 1169)">
      <path id="Rectangle_5-4" data-name="Rectangle 5" d="M0,0H0A10,10,0,0,1,10,10V20A10,10,0,0,1,0,30H0a0,0,0,0,1,0,0V0A0,0,0,0,1,0,0Z" transform="translate(221 246) rotate(90)" fill="#0c90b4"/>
      <path id="Rectangle_4-4" data-name="Rectangle 4" d="M10,0h0a0,0,0,0,1,0,0V30a0,0,0,0,1,0,0h0A10,10,0,0,1,0,20V10A10,10,0,0,1,10,0Z" transform="translate(221 156) rotate(90)" fill="#0c90b4"/>
    </g>
    <g id="Group_1244" data-name="Group 1244" transform="translate(639 1169)">
      <path id="Rectangle_5-5" data-name="Rectangle 5" d="M0,0H0A10,10,0,0,1,10,10V20A10,10,0,0,1,0,30H0a0,0,0,0,1,0,0V0A0,0,0,0,1,0,0Z" transform="translate(221 246) rotate(90)" fill="#0c90b4"/>
      <path id="Rectangle_4-5" data-name="Rectangle 4" d="M10,0h0a0,0,0,0,1,0,0V30a0,0,0,0,1,0,0h0A10,10,0,0,1,0,20V10A10,10,0,0,1,10,0Z" transform="translate(221 156) rotate(90)" fill="#0c90b4"/>
    </g>
    <g id="Group_1245" data-name="Group 1245" transform="translate(672 1169)">
      <path id="Rectangle_5-6" data-name="Rectangle 5" d="M0,0H0A10,10,0,0,1,10,10V20A10,10,0,0,1,0,30H0a0,0,0,0,1,0,0V0A0,0,0,0,1,0,0Z" transform="translate(221 246) rotate(90)" fill="#0c90b4"/>
      <path id="Rectangle_4-6" data-name="Rectangle 4" d="M10,0h0a0,0,0,0,1,0,0V30a0,0,0,0,1,0,0h0A10,10,0,0,1,0,20V10A10,10,0,0,1,10,0Z" transform="translate(221 156) rotate(90)" fill="#0c90b4"/>
    </g>
    <g id="Group_1242" data-name="Group 1242" transform="translate(539 1169)">
      <path id="Rectangle_5-7" data-name="Rectangle 5" d="M0,0H0A10,10,0,0,1,10,10V20A10,10,0,0,1,0,30H0a0,0,0,0,1,0,0V0A0,0,0,0,1,0,0Z" transform="translate(221 246) rotate(90)" fill="#0c90b4"/>
      <path id="Rectangle_4-7" data-name="Rectangle 4" d="M10,0h0a0,0,0,0,1,0,0V30a0,0,0,0,1,0,0h0A10,10,0,0,1,0,20V10A10,10,0,0,1,10,0Z" transform="translate(221 156) rotate(90)" fill="#0c90b4"/>
    </g>
    <g id="Group_1250" data-name="Group 1250" transform="translate(706 1169)">
      <path id="Rectangle_5-8" data-name="Rectangle 5" d="M0,0H0A10,10,0,0,1,10,10V20A10,10,0,0,1,0,30H0a0,0,0,0,1,0,0V0A0,0,0,0,1,0,0Z" transform="translate(221 246) rotate(90)" fill="#0c90b4"/>
      <path id="Rectangle_4-8" data-name="Rectangle 4" d="M10,0h0a0,0,0,0,1,0,0V30a0,0,0,0,1,0,0h0A10,10,0,0,1,0,20V10A10,10,0,0,1,10,0Z" transform="translate(221 156) rotate(90)" fill="#0c90b4"/>
    </g>
    <rect id="Rectangle_2153" data-name="Rectangle 2153" width="20" height="3" rx="1.5" transform="translate(735.5 1417.5)" fill="#00bff3"/>
    <rect id="Rectangle_2154" data-name="Rectangle 2154" width="20" height="3" rx="1.5" transform="translate(802.5 1417.5)" fill="#00bff3"/>
    <rect id="Rectangle_2155" data-name="Rectangle 2155" width="20" height="3" rx="1.5" transform="translate(768.5 1417.5)" fill="#00bff3"/>
    <rect id="Rectangle_2156" data-name="Rectangle 2156" width="20" height="3" rx="1.5" transform="translate(835.5 1417.5)" fill="#00bff3"/>
    <rect id="Rectangle_2157" data-name="Rectangle 2157" width="20" height="3" rx="1.5" transform="translate(869.5 1417.5)" fill="#00bff3"/>
    <rect id="Rectangle_2168" data-name="Rectangle 2168" width="20" height="3" rx="1.5" transform="translate(934.5 1417.5)" fill="#00bff3"/>
    <rect id="Rectangle_2158" data-name="Rectangle 2158" width="20" height="3" rx="1.5" transform="translate(902.5 1417.5)" fill="#00bff3"/>
    <rect id="Rectangle_2167" data-name="Rectangle 2167" width="20" height="3" rx="1.5" transform="translate(967.5 1417.5)" fill="#00bff3"/>
    <rect id="Rectangle_2159" data-name="Rectangle 2159" width="20" height="3" rx="1.5" transform="translate(735.5 1329.5)" fill="#00bff3"/>
    <rect id="Rectangle_2160" data-name="Rectangle 2160" width="20" height="3" rx="1.5" transform="translate(802.5 1329.5)" fill="#00bff3"/>
    <rect id="Rectangle_2161" data-name="Rectangle 2161" width="20" height="3" rx="1.5" transform="translate(768.5 1329.5)" fill="#00bff3"/>
    <rect id="Rectangle_2162" data-name="Rectangle 2162" width="20" height="3" rx="1.5" transform="translate(835.5 1329.5)" fill="#00bff3"/>
    <rect id="Rectangle_2163" data-name="Rectangle 2163" width="20" height="3" rx="1.5" transform="translate(869.5 1329.5)" fill="#00bff3"/>
    <rect id="Rectangle_2166" data-name="Rectangle 2166" width="20" height="3" rx="1.5" transform="translate(935.5 1329.5)" fill="#00bff3"/>
    <rect id="Rectangle_2164" data-name="Rectangle 2164" width="20" height="3" rx="1.5" transform="translate(902.5 1329.5)" fill="#00bff3"/>
    <rect id="Rectangle_2165" data-name="Rectangle 2165" width="20" height="3" rx="1.5" transform="translate(968.5 1329.5)" fill="#00bff3"/>
    <g id="Group_1382" data-name="Group 1382" transform="translate(967 1185) rotate(90)">
      <path id="Rectangle_5-9" data-name="Rectangle 5" d="M0,0H0A10,10,0,0,1,10,10V20A10,10,0,0,1,0,30H0a0,0,0,0,1,0,0V0A0,0,0,0,1,0,0Z" transform="translate(221 246) rotate(90)" fill="#0c90b4"/>
      <path id="Rectangle_4-9" data-name="Rectangle 4" d="M10,0h0a0,0,0,0,1,0,0V30a0,0,0,0,1,0,0h0A10,10,0,0,1,0,20V10A10,10,0,0,1,10,0Z" transform="translate(221 -46) rotate(90)" fill="#0c90b4"/>
    </g>
    <g id="Group_1383" data-name="Group 1383" transform="translate(967 1153) rotate(90)">
      <path id="Rectangle_5-10" data-name="Rectangle 5" d="M0,0H0A10,10,0,0,1,10,10V20A10,10,0,0,1,0,30H0a0,0,0,0,1,0,0V0A0,0,0,0,1,0,0Z" transform="translate(221 246) rotate(90)" fill="#0c90b4"/>
      <path id="Rectangle_4-10" data-name="Rectangle 4" d="M10,0h0a0,0,0,0,1,0,0V30a0,0,0,0,1,0,0h0A10,10,0,0,1,0,20V10A10,10,0,0,1,10,0Z" transform="translate(221 -46) rotate(90)" fill="#0c90b4"/>
    </g>
    <rect id="Rectangle_2169" data-name="Rectangle 2169" width="20" height="3" rx="1.5" transform="translate(719 1349) rotate(90)" fill="#00bff3"/>
    <rect id="Rectangle_2170" data-name="Rectangle 2170" width="20" height="3" rx="1.5" transform="translate(719 1381) rotate(90)" fill="#00bff3"/>
    <rect id="Rectangle_2171" data-name="Rectangle 2171" width="20" height="3" rx="1.5" transform="translate(1009 1349) rotate(90)" fill="#00bff3"/>
    <rect id="Rectangle_2172" data-name="Rectangle 2172" width="20" height="3" rx="1.5" transform="translate(1009 1381) rotate(90)" fill="#00bff3"/>
  </g>
</svg>
