<svg xmlns="http://www.w3.org/2000/svg" width="100" height="100" viewBox="0 0 200 199.999">
  <g id="logo-loadding" transform="translate(-1092 -1521.001)">
    <path id="Path_593" data-name="Path 593" d="M-315.154,203.968a99.518,99.518,0,0,1-18.771-5.827,100,100,0,0,1-16.986-9.22,100.7,100.7,0,0,1-14.8-12.211,100.7,100.7,0,0,1-12.211-14.8,100,100,0,0,1-9.22-16.986,99.56,99.56,0,0,1-5.827-18.771A100.732,100.732,0,0,1-395,106a100.734,100.734,0,0,1,2.032-20.154,99.561,99.561,0,0,1,5.827-18.771,100,100,0,0,1,9.22-16.987,100.733,100.733,0,0,1,12.211-14.8,100.7,100.7,0,0,1,14.8-12.211,100.039,100.039,0,0,1,16.986-9.22,99.47,99.47,0,0,1,18.771-5.827A100.744,100.744,0,0,1-295,6a100.744,100.744,0,0,1,20.154,2.032,99.47,99.47,0,0,1,18.771,5.827,100.044,100.044,0,0,1,16.987,9.22,100.733,100.733,0,0,1,14.8,12.211,100.689,100.689,0,0,1,12.21,14.8,99.98,99.98,0,0,1,9.22,16.987,99.454,99.454,0,0,1,5.827,18.771A100.734,100.734,0,0,1-195,106a100.737,100.737,0,0,1-2.032,20.153,99.468,99.468,0,0,1-5.827,18.771,100,100,0,0,1-9.22,16.986,100.7,100.7,0,0,1-12.21,14.8,100.734,100.734,0,0,1-14.8,12.211,100,100,0,0,1-16.987,9.22,99.5,99.5,0,0,1-18.771,5.827A100.743,100.743,0,0,1-295,206,100.743,100.743,0,0,1-315.154,203.968ZM-371.923,106A77.01,77.01,0,0,0-295,182.923,77.01,77.01,0,0,0-218.077,106,77.01,77.01,0,0,0-295,29.077,77.01,77.01,0,0,0-371.923,106Zm86.014-36.014a22.727,22.727,0,0,1,22.727-22.727,22.727,22.727,0,0,1,22.727,22.727,22.727,22.727,0,0,1-22.727,22.727A22.727,22.727,0,0,1-285.909,69.986Z" transform="translate(1487 1515)" fill="#feb652"/>
  </g>
</svg>
