<svg xmlns="http://www.w3.org/2000/svg" width="400" height="400" viewBox="0 0 400 400">
  <defs>
    <style>
      .cls-1 {
        fill: #f9a42c;
      }

      .cls-2, .cls-3 {
        fill: #fff;
      }

      .cls-3 {
        font-size: 80px;
        font-family: Corbel-Bold, Corbel;
        font-weight: 700;
        letter-spacing: 0.095em;
      }
    </style>
  </defs>
  <g id="logo_2" data-name="logo 2" transform="translate(-1483 -1503)">
    <rect id="Rectangle_2280" data-name="Rectangle 2280" class="cls-1" width="400" height="400" transform="translate(1483 1503)"/>
    <g id="Group_11" data-name="Group 11" transform="translate(987 -12)">
      <path id="Path_593" data-name="Path 593" class="cls-2" d="M-280.82,289.094a142.311,142.311,0,0,1-26.842-8.333,142.992,142.992,0,0,1-24.29-13.184,144,144,0,0,1-21.163-17.462,144,144,0,0,1-17.462-21.163,143,143,0,0,1-13.185-24.29,142.373,142.373,0,0,1-8.332-26.842A144.048,144.048,0,0,1-395,149a144.051,144.051,0,0,1,2.905-28.82,142.373,142.373,0,0,1,8.332-26.842,143,143,0,0,1,13.185-24.291,144.049,144.049,0,0,1,17.462-21.164,144,144,0,0,1,21.163-17.462,143.055,143.055,0,0,1,24.29-13.184A142.241,142.241,0,0,1-280.82,8.906,144.063,144.063,0,0,1-252,6a144.063,144.063,0,0,1,28.82,2.905,142.241,142.241,0,0,1,26.842,8.332,143.063,143.063,0,0,1,24.291,13.184,144.049,144.049,0,0,1,21.163,17.462,143.986,143.986,0,0,1,17.461,21.164,142.97,142.97,0,0,1,13.185,24.291,142.221,142.221,0,0,1,8.332,26.842A144.05,144.05,0,0,1-109,149a144.054,144.054,0,0,1-2.905,28.819,142.241,142.241,0,0,1-8.332,26.842,143,143,0,0,1-13.185,24.29,144,144,0,0,1-17.461,21.163,144.049,144.049,0,0,1-21.163,17.462,143,143,0,0,1-24.291,13.184,142.29,142.29,0,0,1-26.842,8.333A144.064,144.064,0,0,1-252,292,144.064,144.064,0,0,1-280.82,289.094ZM-362,149A110.125,110.125,0,0,0-252,259,110.124,110.124,0,0,0-142,149,110.125,110.125,0,0,0-252,39,110.125,110.125,0,0,0-362,149Zm123-51.5A32.5,32.5,0,0,1-206.5,65,32.5,32.5,0,0,1-174,97.5,32.5,32.5,0,0,1-206.5,130,32.5,32.5,0,0,1-239,97.5Z" transform="translate(950 1527)"/>
      <text id="Omenu" class="cls-3" transform="translate(555 1893)"><tspan x="0" y="0">Omenu</tspan></text>
    </g>
  </g>
</svg>
